<?xml version="1.0" encoding="UTF-8" standalone="no"?>
<!DOCTYPE svg PUBLIC "-//W3C//DTD SVG 1.1//EN"
 "http://www.w3.org/Graphics/SVG/1.1/DTD/svg11.dtd">
<!-- Generated by graphviz version 2.50.0 (20211204.2007)
 -->
<!-- Pages: 1 -->
<svg width="2025pt" height="620pt"
 viewBox="0.00 0.00 2024.77 620.00" xmlns="http://www.w3.org/2000/svg" xmlns:xlink="http://www.w3.org/1999/xlink">
<g id="graph0" class="graph" transform="scale(1 1) rotate(0) translate(4 616)">
<polygon fill="white" stroke="transparent" points="-4,4 -4,-616 2020.77,-616 2020.77,4 -4,4"/>
<!-- [root] azurerm_lb.load_balancer (expand) -->
<g id="node1" class="node">
<title>[root] azurerm_lb.load_balancer (expand)</title>
<polygon fill="none" stroke="black" points="511,-324 353,-324 353,-288 511,-288 511,-324"/>
<text text-anchor="middle" x="432" y="-302.3" font-family="Times,serif" font-size="14.00">azurerm_lb.load_balancer</text>
</g>
<!-- [root] azurerm_public_ip.load_balancer_public_ip (expand) -->
<g id="node10" class="node">
<title>[root] azurerm_public_ip.load_balancer_public_ip (expand)</title>
<polygon fill="none" stroke="black" points="560.5,-252 303.5,-252 303.5,-216 560.5,-216 560.5,-252"/>
<text text-anchor="middle" x="432" y="-230.3" font-family="Times,serif" font-size="14.00">azurerm_public_ip.load_balancer_public_ip</text>
</g>
<!-- [root] azurerm_lb.load_balancer (expand)&#45;&gt;[root] azurerm_public_ip.load_balancer_public_ip (expand) -->
<g id="edge1" class="edge">
<title>[root] azurerm_lb.load_balancer (expand)&#45;&gt;[root] azurerm_public_ip.load_balancer_public_ip (expand)</title>
<path fill="none" stroke="black" d="M432,-287.7C432,-279.98 432,-270.71 432,-262.11"/>
<polygon fill="black" stroke="black" points="435.5,-262.1 432,-252.1 428.5,-262.1 435.5,-262.1"/>
</g>
<!-- [root] azurerm_lb_backend_address_pool.backend_address_pool (expand) -->
<g id="node2" class="node">
<title>[root] azurerm_lb_backend_address_pool.backend_address_pool (expand)</title>
<polygon fill="none" stroke="black" points="686.5,-396 351.5,-396 351.5,-360 686.5,-360 686.5,-396"/>
<text text-anchor="middle" x="519" y="-374.3" font-family="Times,serif" font-size="14.00">azurerm_lb_backend_address_pool.backend_address_pool</text>
</g>
<!-- [root] azurerm_lb_backend_address_pool.backend_address_pool (expand)&#45;&gt;[root] azurerm_lb.load_balancer (expand) -->
<g id="edge2" class="edge">
<title>[root] azurerm_lb_backend_address_pool.backend_address_pool (expand)&#45;&gt;[root] azurerm_lb.load_balancer (expand)</title>
<path fill="none" stroke="black" d="M497.49,-359.7C486.54,-350.88 473.05,-340.03 461.18,-330.47"/>
<polygon fill="black" stroke="black" points="463.24,-327.65 453.26,-324.1 458.86,-333.1 463.24,-327.65"/>
</g>
<!-- [root] azurerm_lb_probe.lb_probe (expand) -->
<g id="node3" class="node">
<title>[root] azurerm_lb_probe.lb_probe (expand)</title>
<polygon fill="none" stroke="black" points="430,-468 262,-468 262,-432 430,-432 430,-468"/>
<text text-anchor="middle" x="346" y="-446.3" font-family="Times,serif" font-size="14.00">azurerm_lb_probe.lb_probe</text>
</g>
<!-- [root] azurerm_lb_probe.lb_probe (expand)&#45;&gt;[root] azurerm_lb.load_balancer (expand) -->
<g id="edge3" class="edge">
<title>[root] azurerm_lb_probe.lb_probe (expand)&#45;&gt;[root] azurerm_lb.load_balancer (expand)</title>
<path fill="none" stroke="black" d="M340.14,-432C334.72,-413.09 329.26,-382.29 342,-360 349.46,-346.95 361.52,-336.8 374.42,-329.03"/>
<polygon fill="black" stroke="black" points="376.39,-331.94 383.44,-324.03 373,-325.82 376.39,-331.94"/>
</g>
<!-- [root] azurerm_lb_rule.lb_rules (expand) -->
<g id="node4" class="node">
<title>[root] azurerm_lb_rule.lb_rules (expand)</title>
<polygon fill="none" stroke="black" points="602,-468 448,-468 448,-432 602,-432 602,-468"/>
<text text-anchor="middle" x="525" y="-446.3" font-family="Times,serif" font-size="14.00">azurerm_lb_rule.lb_rules</text>
</g>
<!-- [root] azurerm_lb_rule.lb_rules (expand)&#45;&gt;[root] azurerm_lb_backend_address_pool.backend_address_pool (expand) -->
<g id="edge4" class="edge">
<title>[root] azurerm_lb_rule.lb_rules (expand)&#45;&gt;[root] azurerm_lb_backend_address_pool.backend_address_pool (expand)</title>
<path fill="none" stroke="black" d="M523.52,-431.7C522.86,-423.98 522.06,-414.71 521.32,-406.11"/>
<polygon fill="black" stroke="black" points="524.81,-405.77 520.47,-396.1 517.83,-406.37 524.81,-405.77"/>
</g>
<!-- [root] azurerm_linux_virtual_machine.vm (expand) -->
<g id="node5" class="node">
<title>[root] azurerm_linux_virtual_machine.vm (expand)</title>
<polygon fill="none" stroke="black" points="1332.5,-468 1119.5,-468 1119.5,-432 1332.5,-432 1332.5,-468"/>
<text text-anchor="middle" x="1226" y="-446.3" font-family="Times,serif" font-size="14.00">azurerm_linux_virtual_machine.vm</text>
</g>
<!-- [root] azurerm_network_interface.network_if (expand) -->
<g id="node6" class="node">
<title>[root] azurerm_network_interface.network_if (expand)</title>
<polygon fill="none" stroke="black" points="935,-396 705,-396 705,-360 935,-360 935,-396"/>
<text text-anchor="middle" x="820" y="-374.3" font-family="Times,serif" font-size="14.00">azurerm_network_interface.network_if</text>
</g>
<!-- [root] azurerm_linux_virtual_machine.vm (expand)&#45;&gt;[root] azurerm_network_interface.network_if (expand) -->
<g id="edge5" class="edge">
<title>[root] azurerm_linux_virtual_machine.vm (expand)&#45;&gt;[root] azurerm_network_interface.network_if (expand)</title>
<path fill="none" stroke="black" d="M1127.2,-431.97C1067.28,-421.63 990.74,-408.44 929.05,-397.8"/>
<polygon fill="black" stroke="black" points="929.34,-394.3 918.89,-396.05 928.15,-401.2 929.34,-394.3"/>
</g>
<!-- [root] azurerm_proximity_placement_group.proximity&#45;placement&#45;group (expand) -->
<g id="node9" class="node">
<title>[root] azurerm_proximity_placement_group.proximity&#45;placement&#45;group (expand)</title>
<polygon fill="none" stroke="black" points="1152,-252 774,-252 774,-216 1152,-216 1152,-252"/>
<text text-anchor="middle" x="963" y="-230.3" font-family="Times,serif" font-size="14.00">azurerm_proximity_placement_group.proximity&#45;placement&#45;group</text>
</g>
<!-- [root] azurerm_linux_virtual_machine.vm (expand)&#45;&gt;[root] azurerm_proximity_placement_group.proximity&#45;placement&#45;group (expand) -->
<g id="edge6" class="edge">
<title>[root] azurerm_linux_virtual_machine.vm (expand)&#45;&gt;[root] azurerm_proximity_placement_group.proximity&#45;placement&#45;group (expand)</title>
<path fill="none" stroke="black" d="M1120.93,-431.99C1059.4,-421.03 991.85,-406.85 982,-396 948.91,-359.55 952.17,-297.75 957.55,-262.26"/>
<polygon fill="black" stroke="black" points="961.04,-262.59 959.25,-252.15 954.14,-261.43 961.04,-262.59"/>
</g>
<!-- [root] var.diskSize -->
<g id="node22" class="node">
<title>[root] var.diskSize</title>
<polygon fill="none" stroke="black" points="1164.5,-396 1087.5,-396 1087.5,-360 1170.5,-360 1170.5,-390 1164.5,-396"/>
<polyline fill="none" stroke="black" points="1164.5,-396 1164.5,-390 "/>
<polyline fill="none" stroke="black" points="1170.5,-390 1164.5,-390 "/>
<text text-anchor="middle" x="1129" y="-374.3" font-family="Times,serif" font-size="14.00">var.diskSize</text>
</g>
<!-- [root] azurerm_linux_virtual_machine.vm (expand)&#45;&gt;[root] var.diskSize -->
<g id="edge7" class="edge">
<title>[root] azurerm_linux_virtual_machine.vm (expand)&#45;&gt;[root] var.diskSize</title>
<path fill="none" stroke="black" d="M1202.02,-431.7C1189.69,-422.8 1174.48,-411.82 1161.15,-402.2"/>
<polygon fill="black" stroke="black" points="1162.86,-399.12 1152.7,-396.1 1158.76,-404.79 1162.86,-399.12"/>
</g>
<!-- [root] var.publisher -->
<g id="node26" class="node">
<title>[root] var.publisher</title>
<polygon fill="none" stroke="black" points="1269.5,-396 1188.5,-396 1188.5,-360 1275.5,-360 1275.5,-390 1269.5,-396"/>
<polyline fill="none" stroke="black" points="1269.5,-396 1269.5,-390 "/>
<polyline fill="none" stroke="black" points="1275.5,-390 1269.5,-390 "/>
<text text-anchor="middle" x="1232" y="-374.3" font-family="Times,serif" font-size="14.00">var.publisher</text>
</g>
<!-- [root] azurerm_linux_virtual_machine.vm (expand)&#45;&gt;[root] var.publisher -->
<g id="edge8" class="edge">
<title>[root] azurerm_linux_virtual_machine.vm (expand)&#45;&gt;[root] var.publisher</title>
<path fill="none" stroke="black" d="M1227.48,-431.7C1228.14,-423.98 1228.94,-414.71 1229.68,-406.11"/>
<polygon fill="black" stroke="black" points="1233.17,-406.37 1230.53,-396.1 1226.19,-405.77 1233.17,-406.37"/>
</g>
<!-- [root] var.storageAccType -->
<g id="node28" class="node">
<title>[root] var.storageAccType</title>
<polygon fill="none" stroke="black" points="1412.5,-396 1293.5,-396 1293.5,-360 1418.5,-360 1418.5,-390 1412.5,-396"/>
<polyline fill="none" stroke="black" points="1412.5,-396 1412.5,-390 "/>
<polyline fill="none" stroke="black" points="1418.5,-390 1412.5,-390 "/>
<text text-anchor="middle" x="1356" y="-374.3" font-family="Times,serif" font-size="14.00">var.storageAccType</text>
</g>
<!-- [root] azurerm_linux_virtual_machine.vm (expand)&#45;&gt;[root] var.storageAccType -->
<g id="edge9" class="edge">
<title>[root] azurerm_linux_virtual_machine.vm (expand)&#45;&gt;[root] var.storageAccType</title>
<path fill="none" stroke="black" d="M1257.8,-431.88C1275.11,-422.55 1296.72,-410.92 1315.26,-400.94"/>
<polygon fill="black" stroke="black" points="1316.93,-404.01 1324.08,-396.19 1313.61,-397.85 1316.93,-404.01"/>
</g>
<!-- [root] var.username -->
<g id="node29" class="node">
<title>[root] var.username</title>
<polygon fill="none" stroke="black" points="1519.5,-396 1436.5,-396 1436.5,-360 1525.5,-360 1525.5,-390 1519.5,-396"/>
<polyline fill="none" stroke="black" points="1519.5,-396 1519.5,-390 "/>
<polyline fill="none" stroke="black" points="1525.5,-390 1519.5,-390 "/>
<text text-anchor="middle" x="1481" y="-374.3" font-family="Times,serif" font-size="14.00">var.username</text>
</g>
<!-- [root] azurerm_linux_virtual_machine.vm (expand)&#45;&gt;[root] var.username -->
<g id="edge10" class="edge">
<title>[root] azurerm_linux_virtual_machine.vm (expand)&#45;&gt;[root] var.username</title>
<path fill="none" stroke="black" d="M1294.97,-431.88C1331.68,-422.54 1377.78,-410.45 1426.46,-396.39"/>
<polygon fill="black" stroke="black" points="1427.61,-399.7 1436.23,-393.55 1425.65,-392.98 1427.61,-399.7"/>
</g>
<!-- [root] var.vmSize -->
<g id="node30" class="node">
<title>[root] var.vmSize</title>
<polygon fill="none" stroke="black" points="1063,-396 991,-396 991,-360 1069,-360 1069,-390 1063,-396"/>
<polyline fill="none" stroke="black" points="1063,-396 1063,-390 "/>
<polyline fill="none" stroke="black" points="1069,-390 1063,-390 "/>
<text text-anchor="middle" x="1030" y="-374.3" font-family="Times,serif" font-size="14.00">var.vmSize</text>
</g>
<!-- [root] azurerm_linux_virtual_machine.vm (expand)&#45;&gt;[root] var.vmSize -->
<g id="edge11" class="edge">
<title>[root] azurerm_linux_virtual_machine.vm (expand)&#45;&gt;[root] var.vmSize</title>
<path fill="none" stroke="black" d="M1178.3,-431.97C1148.04,-421.16 1108.99,-407.21 1078.56,-396.34"/>
<polygon fill="black" stroke="black" points="1079.6,-393 1069.01,-392.93 1077.25,-399.59 1079.6,-393"/>
</g>
<!-- [root] azurerm_public_ip.public_ip (expand) -->
<g id="node11" class="node">
<title>[root] azurerm_public_ip.public_ip (expand)</title>
<polygon fill="none" stroke="black" points="758,-324 584,-324 584,-288 758,-288 758,-324"/>
<text text-anchor="middle" x="671" y="-302.3" font-family="Times,serif" font-size="14.00">azurerm_public_ip.public_ip</text>
</g>
<!-- [root] azurerm_network_interface.network_if (expand)&#45;&gt;[root] azurerm_public_ip.public_ip (expand) -->
<g id="edge12" class="edge">
<title>[root] azurerm_network_interface.network_if (expand)&#45;&gt;[root] azurerm_public_ip.public_ip (expand)</title>
<path fill="none" stroke="black" d="M783.55,-359.88C763.36,-350.39 738.08,-338.51 716.59,-328.42"/>
<polygon fill="black" stroke="black" points="717.87,-325.15 707.33,-324.07 714.89,-331.49 717.87,-325.15"/>
</g>
<!-- [root] azurerm_subnet.subnet (expand) -->
<g id="node13" class="node">
<title>[root] azurerm_subnet.subnet (expand)</title>
<polygon fill="none" stroke="black" points="1332.5,-324 1189.5,-324 1189.5,-288 1332.5,-288 1332.5,-324"/>
<text text-anchor="middle" x="1261" y="-302.3" font-family="Times,serif" font-size="14.00">azurerm_subnet.subnet</text>
</g>
<!-- [root] azurerm_network_interface.network_if (expand)&#45;&gt;[root] azurerm_subnet.subnet (expand) -->
<g id="edge13" class="edge">
<title>[root] azurerm_network_interface.network_if (expand)&#45;&gt;[root] azurerm_subnet.subnet (expand)</title>
<path fill="none" stroke="black" d="M927.32,-359.97C1004.84,-347.66 1107.96,-331.29 1178.94,-320.03"/>
<polygon fill="black" stroke="black" points="1179.85,-323.43 1189.17,-318.4 1178.75,-316.51 1179.85,-323.43"/>
</g>
<!-- [root] var.acc_net -->
<g id="node21" class="node">
<title>[root] var.acc_net</title>
<polygon fill="none" stroke="black" points="853,-324 781,-324 781,-288 859,-288 859,-318 853,-324"/>
<polyline fill="none" stroke="black" points="853,-324 853,-318 "/>
<polyline fill="none" stroke="black" points="859,-318 853,-318 "/>
<text text-anchor="middle" x="820" y="-302.3" font-family="Times,serif" font-size="14.00">var.acc_net</text>
</g>
<!-- [root] azurerm_network_interface.network_if (expand)&#45;&gt;[root] var.acc_net -->
<g id="edge14" class="edge">
<title>[root] azurerm_network_interface.network_if (expand)&#45;&gt;[root] var.acc_net</title>
<path fill="none" stroke="black" d="M820,-359.7C820,-351.98 820,-342.71 820,-334.11"/>
<polygon fill="black" stroke="black" points="823.5,-334.1 820,-324.1 816.5,-334.1 823.5,-334.1"/>
</g>
<!-- [root] azurerm_network_interface_backend_address_pool_association.interface_association (expand) -->
<g id="node7" class="node">
<title>[root] azurerm_network_interface_backend_address_pool_association.interface_association (expand)</title>
<polygon fill="none" stroke="black" points="1101.5,-468 620.5,-468 620.5,-432 1101.5,-432 1101.5,-468"/>
<text text-anchor="middle" x="861" y="-446.3" font-family="Times,serif" font-size="14.00">azurerm_network_interface_backend_address_pool_association.interface_association</text>
</g>
<!-- [root] azurerm_network_interface_backend_address_pool_association.interface_association (expand)&#45;&gt;[root] azurerm_lb_backend_address_pool.backend_address_pool (expand) -->
<g id="edge15" class="edge">
<title>[root] azurerm_network_interface_backend_address_pool_association.interface_association (expand)&#45;&gt;[root] azurerm_lb_backend_address_pool.backend_address_pool (expand)</title>
<path fill="none" stroke="black" d="M777.77,-431.97C727.72,-421.72 663.89,-408.66 612.15,-398.07"/>
<polygon fill="black" stroke="black" points="612.8,-394.63 602.3,-396.05 611.4,-401.48 612.8,-394.63"/>
</g>
<!-- [root] azurerm_network_interface_backend_address_pool_association.interface_association (expand)&#45;&gt;[root] azurerm_network_interface.network_if (expand) -->
<g id="edge16" class="edge">
<title>[root] azurerm_network_interface_backend_address_pool_association.interface_association (expand)&#45;&gt;[root] azurerm_network_interface.network_if (expand)</title>
<path fill="none" stroke="black" d="M850.87,-431.7C846.15,-423.64 840.44,-413.89 835.22,-404.98"/>
<polygon fill="black" stroke="black" points="838.09,-402.96 830.02,-396.1 832.05,-406.5 838.09,-402.96"/>
</g>
<!-- [root] azurerm_network_security_group.nsg (expand) -->
<g id="node8" class="node">
<title>[root] azurerm_network_security_group.nsg (expand)</title>
<polygon fill="none" stroke="black" points="1805.5,-396 1582.5,-396 1582.5,-360 1805.5,-360 1805.5,-396"/>
<text text-anchor="middle" x="1694" y="-374.3" font-family="Times,serif" font-size="14.00">azurerm_network_security_group.nsg</text>
</g>
<!-- [root] azurerm_resource_group.rg (expand) -->
<g id="node12" class="node">
<title>[root] azurerm_resource_group.rg (expand)</title>
<polygon fill="none" stroke="black" points="1046.5,-180 879.5,-180 879.5,-144 1046.5,-144 1046.5,-180"/>
<text text-anchor="middle" x="963" y="-158.3" font-family="Times,serif" font-size="14.00">azurerm_resource_group.rg</text>
</g>
<!-- [root] azurerm_network_security_group.nsg (expand)&#45;&gt;[root] azurerm_resource_group.rg (expand) -->
<g id="edge17" class="edge">
<title>[root] azurerm_network_security_group.nsg (expand)&#45;&gt;[root] azurerm_resource_group.rg (expand)</title>
<path fill="none" stroke="black" d="M1666.29,-359.8C1610.7,-326.17 1480.63,-251.88 1361,-216 1259.57,-185.58 1138.37,-172.6 1056.58,-167.07"/>
<polygon fill="black" stroke="black" points="1056.76,-163.58 1046.55,-166.42 1056.3,-170.56 1056.76,-163.58"/>
</g>
<!-- [root] data.http.ip_address (expand) -->
<g id="node16" class="node">
<title>[root] data.http.ip_address (expand)</title>
<polygon fill="none" stroke="black" points="1826.5,-324 1701.5,-324 1701.5,-288 1826.5,-288 1826.5,-324"/>
<text text-anchor="middle" x="1764" y="-302.3" font-family="Times,serif" font-size="14.00">data.http.ip_address</text>
</g>
<!-- [root] azurerm_network_security_group.nsg (expand)&#45;&gt;[root] data.http.ip_address (expand) -->
<g id="edge18" class="edge">
<title>[root] azurerm_network_security_group.nsg (expand)&#45;&gt;[root] data.http.ip_address (expand)</title>
<path fill="none" stroke="black" d="M1711.3,-359.7C1719.86,-351.14 1730.34,-340.66 1739.7,-331.3"/>
<polygon fill="black" stroke="black" points="1742.3,-333.65 1746.9,-324.1 1737.35,-328.7 1742.3,-333.65"/>
</g>
<!-- [root] azurerm_proximity_placement_group.proximity&#45;placement&#45;group (expand)&#45;&gt;[root] azurerm_resource_group.rg (expand) -->
<g id="edge19" class="edge">
<title>[root] azurerm_proximity_placement_group.proximity&#45;placement&#45;group (expand)&#45;&gt;[root] azurerm_resource_group.rg (expand)</title>
<path fill="none" stroke="black" d="M963,-215.7C963,-207.98 963,-198.71 963,-190.11"/>
<polygon fill="black" stroke="black" points="966.5,-190.1 963,-180.1 959.5,-190.1 966.5,-190.1"/>
</g>
<!-- [root] azurerm_public_ip.load_balancer_public_ip (expand)&#45;&gt;[root] azurerm_resource_group.rg (expand) -->
<g id="edge20" class="edge">
<title>[root] azurerm_public_ip.load_balancer_public_ip (expand)&#45;&gt;[root] azurerm_resource_group.rg (expand)</title>
<path fill="none" stroke="black" d="M560.54,-216.05C655.9,-203.48 783.73,-186.63 869.51,-175.32"/>
<polygon fill="black" stroke="black" points="870.04,-178.79 879.49,-174.01 869.12,-171.85 870.04,-178.79"/>
</g>
<!-- [root] azurerm_public_ip.public_ip (expand)&#45;&gt;[root] azurerm_resource_group.rg (expand) -->
<g id="edge21" class="edge">
<title>[root] azurerm_public_ip.public_ip (expand)&#45;&gt;[root] azurerm_resource_group.rg (expand)</title>
<path fill="none" stroke="black" d="M661.46,-287.8C651.99,-268.13 641.11,-236.08 658,-216 684.67,-184.3 789.82,-171.56 869.26,-166.44"/>
<polygon fill="black" stroke="black" points="869.53,-169.93 879.3,-165.82 869.1,-162.94 869.53,-169.93"/>
</g>
<!-- [root] var.numVMs -->
<g id="node25" class="node">
<title>[root] var.numVMs</title>
<polygon fill="none" stroke="black" points="749.5,-252 666.5,-252 666.5,-216 755.5,-216 755.5,-246 749.5,-252"/>
<polyline fill="none" stroke="black" points="749.5,-252 749.5,-246 "/>
<polyline fill="none" stroke="black" points="755.5,-246 749.5,-246 "/>
<text text-anchor="middle" x="711" y="-230.3" font-family="Times,serif" font-size="14.00">var.numVMs</text>
</g>
<!-- [root] azurerm_public_ip.public_ip (expand)&#45;&gt;[root] var.numVMs -->
<g id="edge22" class="edge">
<title>[root] azurerm_public_ip.public_ip (expand)&#45;&gt;[root] var.numVMs</title>
<path fill="none" stroke="black" d="M680.89,-287.7C685.49,-279.64 691.06,-269.89 696.15,-260.98"/>
<polygon fill="black" stroke="black" points="699.3,-262.52 701.23,-252.1 693.23,-259.05 699.3,-262.52"/>
</g>
<!-- [root] provider[&quot;registry.terraform.io/hashicorp/azurerm&quot;] -->
<g id="node19" class="node">
<title>[root] provider[&quot;registry.terraform.io/hashicorp/azurerm&quot;]</title>
<polygon fill="none" stroke="black" points="571,-108 296.34,-90 571,-72 845.66,-90 571,-108"/>
<text text-anchor="middle" x="571" y="-86.3" font-family="Times,serif" font-size="14.00">provider[&quot;registry.terraform.io/hashicorp/azurerm&quot;]</text>
</g>
<!-- [root] azurerm_resource_group.rg (expand)&#45;&gt;[root] provider[&quot;registry.terraform.io/hashicorp/azurerm&quot;] -->
<g id="edge24" class="edge">
<title>[root] azurerm_resource_group.rg (expand)&#45;&gt;[root] provider[&quot;registry.terraform.io/hashicorp/azurerm&quot;]</title>
<path fill="none" stroke="black" d="M879.39,-146.07C811.8,-134 717.29,-117.12 650.76,-105.24"/>
<polygon fill="black" stroke="black" points="651.2,-101.77 640.74,-103.45 649.97,-108.66 651.2,-101.77"/>
</g>
<!-- [root] var.location -->
<g id="node24" class="node">
<title>[root] var.location</title>
<polygon fill="none" stroke="black" points="938,-108 864,-108 864,-72 944,-72 944,-102 938,-108"/>
<polyline fill="none" stroke="black" points="938,-108 938,-102 "/>
<polyline fill="none" stroke="black" points="944,-102 938,-102 "/>
<text text-anchor="middle" x="904" y="-86.3" font-family="Times,serif" font-size="14.00">var.location</text>
</g>
<!-- [root] azurerm_resource_group.rg (expand)&#45;&gt;[root] var.location -->
<g id="edge25" class="edge">
<title>[root] azurerm_resource_group.rg (expand)&#45;&gt;[root] var.location</title>
<path fill="none" stroke="black" d="M948.42,-143.7C941.34,-135.3 932.72,-125.07 924.95,-115.86"/>
<polygon fill="black" stroke="black" points="927.54,-113.49 918.42,-108.1 922.19,-118.01 927.54,-113.49"/>
</g>
<!-- [root] var.resource_group -->
<g id="node27" class="node">
<title>[root] var.resource_group</title>
<polygon fill="none" stroke="black" points="1077.5,-108 962.5,-108 962.5,-72 1083.5,-72 1083.5,-102 1077.5,-108"/>
<polyline fill="none" stroke="black" points="1077.5,-108 1077.5,-102 "/>
<polyline fill="none" stroke="black" points="1083.5,-102 1077.5,-102 "/>
<text text-anchor="middle" x="1023" y="-86.3" font-family="Times,serif" font-size="14.00">var.resource_group</text>
</g>
<!-- [root] azurerm_resource_group.rg (expand)&#45;&gt;[root] var.resource_group -->
<g id="edge26" class="edge">
<title>[root] azurerm_resource_group.rg (expand)&#45;&gt;[root] var.resource_group</title>
<path fill="none" stroke="black" d="M977.83,-143.7C985.02,-135.3 993.8,-125.07 1001.69,-115.86"/>
<polygon fill="black" stroke="black" points="1004.49,-117.97 1008.34,-108.1 999.17,-113.42 1004.49,-117.97"/>
</g>
<!-- [root] local.required_tags (expand) -->
<g id="node31" class="node">
<title>[root] local.required_tags (expand)</title>
<ellipse fill="none" stroke="black" cx="1235" cy="-90" rx="133.78" ry="18"/>
<text text-anchor="middle" x="1235" y="-86.3" font-family="Times,serif" font-size="14.00">[root] local.required_tags (expand)</text>
</g>
<!-- [root] azurerm_resource_group.rg (expand)&#45;&gt;[root] local.required_tags (expand) -->
<g id="edge23" class="edge">
<title>[root] azurerm_resource_group.rg (expand)&#45;&gt;[root] local.required_tags (expand)</title>
<path fill="none" stroke="black" d="M1029.19,-143.97C1070.68,-133.29 1124.06,-119.55 1166.06,-108.74"/>
<polygon fill="black" stroke="black" points="1167.12,-112.08 1175.93,-106.2 1165.38,-105.3 1167.12,-112.08"/>
</g>
<!-- [root] azurerm_virtual_network.vnet (expand) -->
<g id="node15" class="node">
<title>[root] azurerm_virtual_network.vnet (expand)</title>
<polygon fill="none" stroke="black" points="1352,-252 1170,-252 1170,-216 1352,-216 1352,-252"/>
<text text-anchor="middle" x="1261" y="-230.3" font-family="Times,serif" font-size="14.00">azurerm_virtual_network.vnet</text>
</g>
<!-- [root] azurerm_subnet.subnet (expand)&#45;&gt;[root] azurerm_virtual_network.vnet (expand) -->
<g id="edge27" class="edge">
<title>[root] azurerm_subnet.subnet (expand)&#45;&gt;[root] azurerm_virtual_network.vnet (expand)</title>
<path fill="none" stroke="black" d="M1261,-287.7C1261,-279.98 1261,-270.71 1261,-262.11"/>
<polygon fill="black" stroke="black" points="1264.5,-262.1 1261,-252.1 1257.5,-262.1 1264.5,-262.1"/>
</g>
<!-- [root] azurerm_subnet_network_security_group_association.sec_group (expand) -->
<g id="node14" class="node">
<title>[root] azurerm_subnet_network_security_group_association.sec_group (expand)</title>
<polygon fill="none" stroke="black" points="1732,-468 1364,-468 1364,-432 1732,-432 1732,-468"/>
<text text-anchor="middle" x="1548" y="-446.3" font-family="Times,serif" font-size="14.00">azurerm_subnet_network_security_group_association.sec_group</text>
</g>
<!-- [root] azurerm_subnet_network_security_group_association.sec_group (expand)&#45;&gt;[root] azurerm_network_security_group.nsg (expand) -->
<g id="edge28" class="edge">
<title>[root] azurerm_subnet_network_security_group_association.sec_group (expand)&#45;&gt;[root] azurerm_network_security_group.nsg (expand)</title>
<path fill="none" stroke="black" d="M1583.72,-431.88C1603.5,-422.39 1628.27,-410.51 1649.33,-400.42"/>
<polygon fill="black" stroke="black" points="1650.9,-403.55 1658.4,-396.07 1647.87,-397.24 1650.9,-403.55"/>
</g>
<!-- [root] azurerm_subnet_network_security_group_association.sec_group (expand)&#45;&gt;[root] azurerm_subnet.subnet (expand) -->
<g id="edge29" class="edge">
<title>[root] azurerm_subnet_network_security_group_association.sec_group (expand)&#45;&gt;[root] azurerm_subnet.subnet (expand)</title>
<path fill="none" stroke="black" d="M1550.83,-431.76C1553.05,-411.76 1553.23,-379.08 1535,-360 1509.05,-332.82 1413.94,-319.12 1343.02,-312.54"/>
<polygon fill="black" stroke="black" points="1343.01,-309.03 1332.74,-311.62 1342.39,-316 1343.01,-309.03"/>
</g>
<!-- [root] azurerm_virtual_network.vnet (expand)&#45;&gt;[root] azurerm_resource_group.rg (expand) -->
<g id="edge30" class="edge">
<title>[root] azurerm_virtual_network.vnet (expand)&#45;&gt;[root] azurerm_resource_group.rg (expand)</title>
<path fill="none" stroke="black" d="M1188.48,-215.97C1145.32,-205.83 1090.4,-192.93 1045.57,-182.4"/>
<polygon fill="black" stroke="black" points="1046.12,-178.93 1035.58,-180.05 1044.52,-185.74 1046.12,-178.93"/>
</g>
<!-- [root] provider[&quot;registry.terraform.io/hashicorp/http&quot;] -->
<g id="node20" class="node">
<title>[root] provider[&quot;registry.terraform.io/hashicorp/http&quot;]</title>
<polygon fill="none" stroke="black" points="1764,-252 1511.46,-234 1764,-216 2016.54,-234 1764,-252"/>
<text text-anchor="middle" x="1764" y="-230.3" font-family="Times,serif" font-size="14.00">provider[&quot;registry.terraform.io/hashicorp/http&quot;]</text>
</g>
<!-- [root] data.http.ip_address (expand)&#45;&gt;[root] provider[&quot;registry.terraform.io/hashicorp/http&quot;] -->
<g id="edge31" class="edge">
<title>[root] data.http.ip_address (expand)&#45;&gt;[root] provider[&quot;registry.terraform.io/hashicorp/http&quot;]</title>
<path fill="none" stroke="black" d="M1764,-287.7C1764,-279.98 1764,-270.71 1764,-262.11"/>
<polygon fill="black" stroke="black" points="1767.5,-262.1 1764,-252.1 1760.5,-262.1 1767.5,-262.1"/>
</g>
<!-- [root] output.load_balancer_public_ip_address -->
<g id="node17" class="node">
<title>[root] output.load_balancer_public_ip_address</title>
<polygon fill="none" stroke="black" points="230,-324 0,-324 0,-288 236,-288 236,-318 230,-324"/>
<polyline fill="none" stroke="black" points="230,-324 230,-318 "/>
<polyline fill="none" stroke="black" points="236,-318 230,-318 "/>
<text text-anchor="middle" x="118" y="-302.3" font-family="Times,serif" font-size="14.00">output.load_balancer_public_ip_address</text>
</g>
<!-- [root] output.load_balancer_public_ip_address&#45;&gt;[root] azurerm_public_ip.load_balancer_public_ip (expand) -->
<g id="edge40" class="edge">
<title>[root] output.load_balancer_public_ip_address&#45;&gt;[root] azurerm_public_ip.load_balancer_public_ip (expand)</title>
<path fill="none" stroke="black" d="M194.41,-287.97C240.09,-277.78 298.24,-264.82 345.59,-254.26"/>
<polygon fill="black" stroke="black" points="346.52,-257.64 355.52,-252.05 345,-250.81 346.52,-257.64"/>
</g>
<!-- [root] output.public_ip_address -->
<g id="node18" class="node">
<title>[root] output.public_ip_address</title>
<polygon fill="none" stroke="black" points="237.5,-468 90.5,-468 90.5,-432 243.5,-432 243.5,-462 237.5,-468"/>
<polyline fill="none" stroke="black" points="237.5,-468 237.5,-462 "/>
<polyline fill="none" stroke="black" points="243.5,-462 237.5,-462 "/>
<text text-anchor="middle" x="167" y="-446.3" font-family="Times,serif" font-size="14.00">output.public_ip_address</text>
</g>
<!-- [root] output.public_ip_address&#45;&gt;[root] azurerm_public_ip.public_ip (expand) -->
<g id="edge41" class="edge">
<title>[root] output.public_ip_address&#45;&gt;[root] azurerm_public_ip.public_ip (expand)</title>
<path fill="none" stroke="black" d="M194.03,-431.88C227.47,-411.51 286.75,-378.01 342,-360 383.94,-346.33 492.63,-330.14 573.69,-319.29"/>
<polygon fill="black" stroke="black" points="574.48,-322.71 583.93,-317.92 573.55,-315.77 574.48,-322.71"/>
</g>
<!-- [root] var.labels -->
<g id="node23" class="node">
<title>[root] var.labels</title>
<polygon fill="none" stroke="black" points="1263,-36 1201,-36 1201,0 1269,0 1269,-30 1263,-36"/>
<polyline fill="none" stroke="black" points="1263,-36 1263,-30 "/>
<polyline fill="none" stroke="black" points="1269,-30 1263,-30 "/>
<text text-anchor="middle" x="1235" y="-14.3" font-family="Times,serif" font-size="14.00">var.labels</text>
</g>
<!-- [root] local.required_tags (expand)&#45;&gt;[root] var.labels -->
<g id="edge32" class="edge">
<title>[root] local.required_tags (expand)&#45;&gt;[root] var.labels</title>
<path fill="none" stroke="black" d="M1235,-71.7C1235,-63.98 1235,-54.71 1235,-46.11"/>
<polygon fill="black" stroke="black" points="1238.5,-46.1 1235,-36.1 1231.5,-46.1 1238.5,-46.1"/>
</g>
<!-- [root] meta.count&#45;boundary (EachMode fixup) -->
<g id="node32" class="node">
<title>[root] meta.count&#45;boundary (EachMode fixup)</title>
<ellipse fill="none" stroke="black" cx="525" cy="-522" rx="176.57" ry="18"/>
<text text-anchor="middle" x="525" y="-518.3" font-family="Times,serif" font-size="14.00">[root] meta.count&#45;boundary (EachMode fixup)</text>
</g>
<!-- [root] meta.count&#45;boundary (EachMode fixup)&#45;&gt;[root] azurerm_lb_probe.lb_probe (expand) -->
<g id="edge33" class="edge">
<title>[root] meta.count&#45;boundary (EachMode fixup)&#45;&gt;[root] azurerm_lb_probe.lb_probe (expand)</title>
<path fill="none" stroke="black" d="M482.58,-504.41C457.63,-494.65 425.85,-482.23 399.23,-471.81"/>
<polygon fill="black" stroke="black" points="400.26,-468.46 389.67,-468.08 397.71,-474.98 400.26,-468.46"/>
</g>
<!-- [root] meta.count&#45;boundary (EachMode fixup)&#45;&gt;[root] azurerm_lb_rule.lb_rules (expand) -->
<g id="edge34" class="edge">
<title>[root] meta.count&#45;boundary (EachMode fixup)&#45;&gt;[root] azurerm_lb_rule.lb_rules (expand)</title>
<path fill="none" stroke="black" d="M525,-503.7C525,-495.98 525,-486.71 525,-478.11"/>
<polygon fill="black" stroke="black" points="528.5,-478.1 525,-468.1 521.5,-478.1 528.5,-478.1"/>
</g>
<!-- [root] meta.count&#45;boundary (EachMode fixup)&#45;&gt;[root] azurerm_linux_virtual_machine.vm (expand) -->
<g id="edge35" class="edge">
<title>[root] meta.count&#45;boundary (EachMode fixup)&#45;&gt;[root] azurerm_linux_virtual_machine.vm (expand)</title>
<path fill="none" stroke="black" d="M651.56,-509.41C671.45,-507.59 691.79,-505.74 711,-504 885.47,-488.18 932.04,-489.02 1109.03,-468.2"/>
<polygon fill="black" stroke="black" points="1109.69,-471.65 1119.21,-467 1108.87,-464.7 1109.69,-471.65"/>
</g>
<!-- [root] meta.count&#45;boundary (EachMode fixup)&#45;&gt;[root] azurerm_network_interface_backend_address_pool_association.interface_association (expand) -->
<g id="edge36" class="edge">
<title>[root] meta.count&#45;boundary (EachMode fixup)&#45;&gt;[root] azurerm_network_interface_backend_address_pool_association.interface_association (expand)</title>
<path fill="none" stroke="black" d="M598.74,-505.64C648.93,-495.18 715.72,-481.27 769.34,-470.1"/>
<polygon fill="black" stroke="black" points="770.11,-473.51 779.19,-468.04 768.68,-466.66 770.11,-473.51"/>
</g>
<!-- [root] meta.count&#45;boundary (EachMode fixup)&#45;&gt;[root] azurerm_subnet_network_security_group_association.sec_group (expand) -->
<g id="edge37" class="edge">
<title>[root] meta.count&#45;boundary (EachMode fixup)&#45;&gt;[root] azurerm_subnet_network_security_group_association.sec_group (expand)</title>
<path fill="none" stroke="black" d="M648.51,-509.12C669.36,-507.28 690.79,-505.5 711,-504 991.13,-483.21 1061.78,-487.55 1342,-468 1345.8,-467.73 1349.65,-467.46 1353.52,-467.18"/>
<polygon fill="black" stroke="black" points="1354.11,-470.65 1363.83,-466.43 1353.6,-463.67 1354.11,-470.65"/>
</g>
<!-- [root] meta.count&#45;boundary (EachMode fixup)&#45;&gt;[root] output.load_balancer_public_ip_address -->
<g id="edge38" class="edge">
<title>[root] meta.count&#45;boundary (EachMode fixup)&#45;&gt;[root] output.load_balancer_public_ip_address</title>
<path fill="none" stroke="black" d="M373.21,-512.71C252.44,-504.51 100.52,-489.99 81,-468 47.44,-430.2 77.63,-368.13 99.69,-333.13"/>
<polygon fill="black" stroke="black" points="102.84,-334.72 105.36,-324.43 96.97,-330.9 102.84,-334.72"/>
</g>
<!-- [root] meta.count&#45;boundary (EachMode fixup)&#45;&gt;[root] output.public_ip_address -->
<g id="edge39" class="edge">
<title>[root] meta.count&#45;boundary (EachMode fixup)&#45;&gt;[root] output.public_ip_address</title>
<path fill="none" stroke="black" d="M446.73,-505.81C394.81,-495.72 324.88,-482.1 253.91,-468.18"/>
<polygon fill="black" stroke="black" points="254.38,-464.7 243.89,-466.21 253.03,-471.57 254.38,-464.7"/>
</g>
<!-- [root] provider[&quot;registry.terraform.io/hashicorp/azurerm&quot;] (close) -->
<g id="node33" class="node">
<title>[root] provider[&quot;registry.terraform.io/hashicorp/azurerm&quot;] (close)</title>
<ellipse fill="none" stroke="black" cx="963" cy="-522" rx="243.16" ry="18"/>
<text text-anchor="middle" x="963" y="-518.3" font-family="Times,serif" font-size="14.00">[root] provider[&quot;registry.terraform.io/hashicorp/azurerm&quot;] (close)</text>
</g>
<!-- [root] provider[&quot;registry.terraform.io/hashicorp/azurerm&quot;] (close)&#45;&gt;[root] azurerm_lb_probe.lb_probe (expand) -->
<g id="edge42" class="edge">
<title>[root] provider[&quot;registry.terraform.io/hashicorp/azurerm&quot;] (close)&#45;&gt;[root] azurerm_lb_probe.lb_probe (expand)</title>
<path fill="none" stroke="black" d="M804.67,-508.31C703.16,-499.37 568.38,-486.04 440.11,-468.1"/>
<polygon fill="black" stroke="black" points="440.49,-464.62 430.1,-466.68 439.51,-471.55 440.49,-464.62"/>
</g>
<!-- [root] provider[&quot;registry.terraform.io/hashicorp/azurerm&quot;] (close)&#45;&gt;[root] azurerm_lb_rule.lb_rules (expand) -->
<g id="edge43" class="edge">
<title>[root] provider[&quot;registry.terraform.io/hashicorp/azurerm&quot;] (close)&#45;&gt;[root] azurerm_lb_rule.lb_rules (expand)</title>
<path fill="none" stroke="black" d="M854.49,-505.85C787.62,-496.22 699.86,-483.05 612.4,-468.03"/>
<polygon fill="black" stroke="black" points="612.74,-464.53 602.29,-466.28 611.55,-471.43 612.74,-464.53"/>
</g>
<!-- [root] provider[&quot;registry.terraform.io/hashicorp/azurerm&quot;] (close)&#45;&gt;[root] azurerm_linux_virtual_machine.vm (expand) -->
<g id="edge44" class="edge">
<title>[root] provider[&quot;registry.terraform.io/hashicorp/azurerm&quot;] (close)&#45;&gt;[root] azurerm_linux_virtual_machine.vm (expand)</title>
<path fill="none" stroke="black" d="M1024.66,-504.59C1062.81,-494.43 1112.01,-481.34 1152.23,-470.64"/>
<polygon fill="black" stroke="black" points="1153.21,-473.99 1161.98,-468.04 1151.41,-467.23 1153.21,-473.99"/>
</g>
<!-- [root] provider[&quot;registry.terraform.io/hashicorp/azurerm&quot;] (close)&#45;&gt;[root] azurerm_network_interface_backend_address_pool_association.interface_association (expand) -->
<g id="edge45" class="edge">
<title>[root] provider[&quot;registry.terraform.io/hashicorp/azurerm&quot;] (close)&#45;&gt;[root] azurerm_network_interface_backend_address_pool_association.interface_association (expand)</title>
<path fill="none" stroke="black" d="M938.31,-504.05C925.13,-495.01 908.71,-483.74 894.41,-473.93"/>
<polygon fill="black" stroke="black" points="896.04,-470.8 885.82,-468.03 892.08,-476.58 896.04,-470.8"/>
</g>
<!-- [root] provider[&quot;registry.terraform.io/hashicorp/azurerm&quot;] (close)&#45;&gt;[root] azurerm_subnet_network_security_group_association.sec_group (expand) -->
<g id="edge46" class="edge">
<title>[root] provider[&quot;registry.terraform.io/hashicorp/azurerm&quot;] (close)&#45;&gt;[root] azurerm_subnet_network_security_group_association.sec_group (expand)</title>
<path fill="none" stroke="black" d="M1084.92,-506.41C1175.24,-495.6 1298.9,-480.81 1395.71,-469.22"/>
<polygon fill="black" stroke="black" points="1396.38,-472.67 1405.89,-468 1395.54,-465.72 1396.38,-472.67"/>
</g>
<!-- [root] provider[&quot;registry.terraform.io/hashicorp/http&quot;] (close) -->
<g id="node34" class="node">
<title>[root] provider[&quot;registry.terraform.io/hashicorp/http&quot;] (close)</title>
<ellipse fill="none" stroke="black" cx="1640" cy="-522" rx="227.46" ry="18"/>
<text text-anchor="middle" x="1640" y="-518.3" font-family="Times,serif" font-size="14.00">[root] provider[&quot;registry.terraform.io/hashicorp/http&quot;] (close)</text>
</g>
<!-- [root] provider[&quot;registry.terraform.io/hashicorp/http&quot;] (close)&#45;&gt;[root] data.http.ip_address (expand) -->
<g id="edge47" class="edge">
<title>[root] provider[&quot;registry.terraform.io/hashicorp/http&quot;] (close)&#45;&gt;[root] data.http.ip_address (expand)</title>
<path fill="none" stroke="black" d="M1686.39,-504.32C1729.99,-485.66 1791.91,-450.69 1815,-396 1821.22,-381.26 1820.98,-374.84 1815,-360 1810.65,-349.21 1802.94,-339.39 1794.81,-331.21"/>
<polygon fill="black" stroke="black" points="1797,-328.46 1787.3,-324.18 1792.21,-333.57 1797,-328.46"/>
</g>
<!-- [root] root -->
<g id="node35" class="node">
<title>[root] root</title>
<ellipse fill="none" stroke="black" cx="963" cy="-594" rx="47.39" ry="18"/>
<text text-anchor="middle" x="963" y="-590.3" font-family="Times,serif" font-size="14.00">[root] root</text>
</g>
<!-- [root] root&#45;&gt;[root] meta.count&#45;boundary (EachMode fixup) -->
<g id="edge48" class="edge">
<title>[root] root&#45;&gt;[root] meta.count&#45;boundary (EachMode fixup)</title>
<path fill="none" stroke="black" d="M920.21,-586.16C852.5,-575.34 718.83,-553.98 625.79,-539.11"/>
<polygon fill="black" stroke="black" points="626.22,-535.63 615.79,-537.51 625.11,-542.54 626.22,-535.63"/>
</g>
<!-- [root] root&#45;&gt;[root] provider[&quot;registry.terraform.io/hashicorp/azurerm&quot;] (close) -->
<g id="edge49" class="edge">
<title>[root] root&#45;&gt;[root] provider[&quot;registry.terraform.io/hashicorp/azurerm&quot;] (close)</title>
<path fill="none" stroke="black" d="M963,-575.7C963,-567.98 963,-558.71 963,-550.11"/>
<polygon fill="black" stroke="black" points="966.5,-550.1 963,-540.1 959.5,-550.1 966.5,-550.1"/>
</g>
<!-- [root] root&#45;&gt;[root] provider[&quot;registry.terraform.io/hashicorp/http&quot;] (close) -->
<g id="edge50" class="edge">
<title>[root] root&#45;&gt;[root] provider[&quot;registry.terraform.io/hashicorp/http&quot;] (close)</title>
<path fill="none" stroke="black" d="M1008.21,-588.33C1106.58,-578.15 1343.57,-553.65 1497.7,-537.71"/>
<polygon fill="black" stroke="black" points="1498.14,-541.19 1507.73,-536.68 1497.42,-534.22 1498.14,-541.19"/>
</g>
</g>
</svg>
