<?xml version="1.0" encoding="UTF-8" standalone="no"?>
<!DOCTYPE svg PUBLIC "-//W3C//DTD SVG 1.1//EN"
 "http://www.w3.org/Graphics/SVG/1.1/DTD/svg11.dtd">
<!-- Generated by graphviz version 2.50.0 (20211204.2007)
 -->
<!-- Pages: 1 -->
<svg width="1404pt" height="476pt"
 viewBox="0.00 0.00 1404.31 476.00" xmlns="http://www.w3.org/2000/svg" xmlns:xlink="http://www.w3.org/1999/xlink">
<g id="graph0" class="graph" transform="scale(1 1) rotate(0) translate(4 472)">
<polygon fill="white" stroke="transparent" points="-4,4 -4,-472 1400.31,-472 1400.31,4 -4,4"/>
<!-- [root] azurerm_resource_group.rg (expand) -->
<g id="node1" class="node">
<title>[root] azurerm_resource_group.rg (expand)</title>
<polygon fill="none" stroke="black" points="750.33,-180 583.33,-180 583.33,-144 750.33,-144 750.33,-180"/>
<text text-anchor="middle" x="666.83" y="-158.3" font-family="Times,serif" font-size="14.00">azurerm_resource_group.rg</text>
</g>
<!-- [root] provider[&quot;registry.terraform.io/hashicorp/azurerm&quot;] -->
<g id="node6" class="node">
<title>[root] provider[&quot;registry.terraform.io/hashicorp/azurerm&quot;]</title>
<polygon fill="none" stroke="black" points="274.83,-108 0.17,-90 274.83,-72 549.48,-90 274.83,-108"/>
<text text-anchor="middle" x="274.83" y="-86.3" font-family="Times,serif" font-size="14.00">provider[&quot;registry.terraform.io/hashicorp/azurerm&quot;]</text>
</g>
<!-- [root] azurerm_resource_group.rg (expand)&#45;&gt;[root] provider[&quot;registry.terraform.io/hashicorp/azurerm&quot;] -->
<g id="edge2" class="edge">
<title>[root] azurerm_resource_group.rg (expand)&#45;&gt;[root] provider[&quot;registry.terraform.io/hashicorp/azurerm&quot;]</title>
<path fill="none" stroke="black" d="M583.18,-145.69C580.02,-145.12 576.9,-144.55 573.83,-144 500.01,-130.71 415.9,-115.82 355.73,-105.22"/>
<polygon fill="black" stroke="black" points="355.99,-101.71 345.53,-103.42 354.77,-108.6 355.99,-101.71"/>
</g>
<!-- [root] var.location -->
<g id="node10" class="node">
<title>[root] var.location</title>
<polygon fill="none" stroke="black" points="641.83,-108 567.83,-108 567.83,-72 647.83,-72 647.83,-102 641.83,-108"/>
<polyline fill="none" stroke="black" points="641.83,-108 641.83,-102 "/>
<polyline fill="none" stroke="black" points="647.83,-102 641.83,-102 "/>
<text text-anchor="middle" x="607.83" y="-86.3" font-family="Times,serif" font-size="14.00">var.location</text>
</g>
<!-- [root] azurerm_resource_group.rg (expand)&#45;&gt;[root] var.location -->
<g id="edge3" class="edge">
<title>[root] azurerm_resource_group.rg (expand)&#45;&gt;[root] var.location</title>
<path fill="none" stroke="black" d="M652.24,-143.7C645.17,-135.3 636.54,-125.07 628.78,-115.86"/>
<polygon fill="black" stroke="black" points="631.37,-113.49 622.24,-108.1 626.01,-118.01 631.37,-113.49"/>
</g>
<!-- [root] var.resource_group -->
<g id="node11" class="node">
<title>[root] var.resource_group</title>
<polygon fill="none" stroke="black" points="781.33,-108 666.33,-108 666.33,-72 787.33,-72 787.33,-102 781.33,-108"/>
<polyline fill="none" stroke="black" points="781.33,-108 781.33,-102 "/>
<polyline fill="none" stroke="black" points="787.33,-102 781.33,-102 "/>
<text text-anchor="middle" x="726.83" y="-86.3" font-family="Times,serif" font-size="14.00">var.resource_group</text>
</g>
<!-- [root] azurerm_resource_group.rg (expand)&#45;&gt;[root] var.resource_group -->
<g id="edge4" class="edge">
<title>[root] azurerm_resource_group.rg (expand)&#45;&gt;[root] var.resource_group</title>
<path fill="none" stroke="black" d="M681.66,-143.7C688.85,-135.3 697.62,-125.07 705.52,-115.86"/>
<polygon fill="black" stroke="black" points="708.32,-117.97 712.17,-108.1 703,-113.42 708.32,-117.97"/>
</g>
<!-- [root] local.required_tags (expand) -->
<g id="node12" class="node">
<title>[root] local.required_tags (expand)</title>
<ellipse fill="none" stroke="black" cx="938.83" cy="-90" rx="133.78" ry="18"/>
<text text-anchor="middle" x="938.83" y="-86.3" font-family="Times,serif" font-size="14.00">[root] local.required_tags (expand)</text>
</g>
<!-- [root] azurerm_resource_group.rg (expand)&#45;&gt;[root] local.required_tags (expand) -->
<g id="edge1" class="edge">
<title>[root] azurerm_resource_group.rg (expand)&#45;&gt;[root] local.required_tags (expand)</title>
<path fill="none" stroke="black" d="M733.02,-143.97C774.51,-133.29 827.89,-119.55 869.89,-108.74"/>
<polygon fill="black" stroke="black" points="870.95,-112.08 879.76,-106.2 869.21,-105.3 870.95,-112.08"/>
</g>
<!-- [root] azurerm_storage_account.remote_state_file (expand) -->
<g id="node2" class="node">
<title>[root] azurerm_storage_account.remote_state_file (expand)</title>
<polygon fill="none" stroke="black" points="699.83,-252 445.83,-252 445.83,-216 699.83,-216 699.83,-252"/>
<text text-anchor="middle" x="572.83" y="-230.3" font-family="Times,serif" font-size="14.00">azurerm_storage_account.remote_state_file</text>
</g>
<!-- [root] azurerm_storage_account.remote_state_file (expand)&#45;&gt;[root] azurerm_resource_group.rg (expand) -->
<g id="edge5" class="edge">
<title>[root] azurerm_storage_account.remote_state_file (expand)&#45;&gt;[root] azurerm_resource_group.rg (expand)</title>
<path fill="none" stroke="black" d="M596.06,-215.7C608.02,-206.8 622.75,-195.82 635.68,-186.2"/>
<polygon fill="black" stroke="black" points="637.93,-188.88 643.86,-180.1 633.75,-183.27 637.93,-188.88"/>
</g>
<!-- [root] var.account_replication_type -->
<g id="node8" class="node">
<title>[root] var.account_replication_type</title>
<polygon fill="none" stroke="black" points="559.33,-180 392.33,-180 392.33,-144 565.33,-144 565.33,-174 559.33,-180"/>
<polyline fill="none" stroke="black" points="559.33,-180 559.33,-174 "/>
<polyline fill="none" stroke="black" points="565.33,-174 559.33,-174 "/>
<text text-anchor="middle" x="478.83" y="-158.3" font-family="Times,serif" font-size="14.00">var.account_replication_type</text>
</g>
<!-- [root] azurerm_storage_account.remote_state_file (expand)&#45;&gt;[root] var.account_replication_type -->
<g id="edge6" class="edge">
<title>[root] azurerm_storage_account.remote_state_file (expand)&#45;&gt;[root] var.account_replication_type</title>
<path fill="none" stroke="black" d="M549.59,-215.7C537.64,-206.8 522.9,-195.82 509.98,-186.2"/>
<polygon fill="black" stroke="black" points="511.91,-183.27 501.8,-180.1 507.73,-188.88 511.91,-183.27"/>
</g>
<!-- [root] azurerm_storage_account_network_rules.storage_network_rules (expand) -->
<g id="node3" class="node">
<title>[root] azurerm_storage_account_network_rules.storage_network_rules (expand)</title>
<polygon fill="none" stroke="black" points="923.33,-324 556.33,-324 556.33,-288 923.33,-288 923.33,-324"/>
<text text-anchor="middle" x="739.83" y="-302.3" font-family="Times,serif" font-size="14.00">azurerm_storage_account_network_rules.storage_network_rules</text>
</g>
<!-- [root] azurerm_storage_account_network_rules.storage_network_rules (expand)&#45;&gt;[root] azurerm_storage_account.remote_state_file (expand) -->
<g id="edge7" class="edge">
<title>[root] azurerm_storage_account_network_rules.storage_network_rules (expand)&#45;&gt;[root] azurerm_storage_account.remote_state_file (expand)</title>
<path fill="none" stroke="black" d="M698.98,-287.88C676.04,-278.26 647.25,-266.19 622.96,-256.01"/>
<polygon fill="black" stroke="black" points="624.12,-252.71 613.55,-252.07 621.42,-259.16 624.12,-252.71"/>
</g>
<!-- [root] data.http.ip_address (expand) -->
<g id="node5" class="node">
<title>[root] data.http.ip_address (expand)</title>
<polygon fill="none" stroke="black" points="1157.33,-252 1032.33,-252 1032.33,-216 1157.33,-216 1157.33,-252"/>
<text text-anchor="middle" x="1094.83" y="-230.3" font-family="Times,serif" font-size="14.00">data.http.ip_address</text>
</g>
<!-- [root] azurerm_storage_account_network_rules.storage_network_rules (expand)&#45;&gt;[root] data.http.ip_address (expand) -->
<g id="edge8" class="edge">
<title>[root] azurerm_storage_account_network_rules.storage_network_rules (expand)&#45;&gt;[root] data.http.ip_address (expand)</title>
<path fill="none" stroke="black" d="M826.22,-287.97C886.24,-276.13 965.32,-260.54 1022.12,-249.34"/>
<polygon fill="black" stroke="black" points="1022.96,-252.74 1032.1,-247.37 1021.61,-245.87 1022.96,-252.74"/>
</g>
<!-- [root] azurerm_storage_container.remote_container (expand) -->
<g id="node4" class="node">
<title>[root] azurerm_storage_container.remote_container (expand)</title>
<polygon fill="none" stroke="black" points="538.33,-324 275.33,-324 275.33,-288 538.33,-288 538.33,-324"/>
<text text-anchor="middle" x="406.83" y="-302.3" font-family="Times,serif" font-size="14.00">azurerm_storage_container.remote_container</text>
</g>
<!-- [root] azurerm_storage_container.remote_container (expand)&#45;&gt;[root] azurerm_storage_account.remote_state_file (expand) -->
<g id="edge9" class="edge">
<title>[root] azurerm_storage_container.remote_container (expand)&#45;&gt;[root] azurerm_storage_account.remote_state_file (expand)</title>
<path fill="none" stroke="black" d="M447.44,-287.88C470.23,-278.26 498.86,-266.19 523,-256.01"/>
<polygon fill="black" stroke="black" points="524.5,-259.18 532.35,-252.07 521.78,-252.73 524.5,-259.18"/>
</g>
<!-- [root] provider[&quot;registry.terraform.io/hashicorp/http&quot;] -->
<g id="node7" class="node">
<title>[root] provider[&quot;registry.terraform.io/hashicorp/http&quot;]</title>
<polygon fill="none" stroke="black" points="1094.83,-180 842.29,-162 1094.83,-144 1347.36,-162 1094.83,-180"/>
<text text-anchor="middle" x="1094.83" y="-158.3" font-family="Times,serif" font-size="14.00">provider[&quot;registry.terraform.io/hashicorp/http&quot;]</text>
</g>
<!-- [root] data.http.ip_address (expand)&#45;&gt;[root] provider[&quot;registry.terraform.io/hashicorp/http&quot;] -->
<g id="edge10" class="edge">
<title>[root] data.http.ip_address (expand)&#45;&gt;[root] provider[&quot;registry.terraform.io/hashicorp/http&quot;]</title>
<path fill="none" stroke="black" d="M1094.83,-215.7C1094.83,-207.98 1094.83,-198.71 1094.83,-190.11"/>
<polygon fill="black" stroke="black" points="1098.33,-190.1 1094.83,-180.1 1091.33,-190.1 1098.33,-190.1"/>
</g>
<!-- [root] var.labels -->
<g id="node9" class="node">
<title>[root] var.labels</title>
<polygon fill="none" stroke="black" points="966.83,-36 904.83,-36 904.83,0 972.83,0 972.83,-30 966.83,-36"/>
<polyline fill="none" stroke="black" points="966.83,-36 966.83,-30 "/>
<polyline fill="none" stroke="black" points="972.83,-30 966.83,-30 "/>
<text text-anchor="middle" x="938.83" y="-14.3" font-family="Times,serif" font-size="14.00">var.labels</text>
</g>
<!-- [root] local.required_tags (expand)&#45;&gt;[root] var.labels -->
<g id="edge11" class="edge">
<title>[root] local.required_tags (expand)&#45;&gt;[root] var.labels</title>
<path fill="none" stroke="black" d="M938.83,-71.7C938.83,-63.98 938.83,-54.71 938.83,-46.11"/>
<polygon fill="black" stroke="black" points="942.33,-46.1 938.83,-36.1 935.33,-46.1 942.33,-46.1"/>
</g>
<!-- [root] meta.count&#45;boundary (EachMode fixup) -->
<g id="node13" class="node">
<title>[root] meta.count&#45;boundary (EachMode fixup)</title>
<ellipse fill="none" stroke="black" cx="844.83" cy="-378" rx="176.57" ry="18"/>
<text text-anchor="middle" x="844.83" y="-374.3" font-family="Times,serif" font-size="14.00">[root] meta.count&#45;boundary (EachMode fixup)</text>
</g>
<!-- [root] meta.count&#45;boundary (EachMode fixup)&#45;&gt;[root] azurerm_storage_account_network_rules.storage_network_rules (expand) -->
<g id="edge12" class="edge">
<title>[root] meta.count&#45;boundary (EachMode fixup)&#45;&gt;[root] azurerm_storage_account_network_rules.storage_network_rules (expand)</title>
<path fill="none" stroke="black" d="M819.41,-360.05C805.71,-350.92 788.63,-339.53 773.8,-329.65"/>
<polygon fill="black" stroke="black" points="775.64,-326.67 765.38,-324.03 771.75,-332.49 775.64,-326.67"/>
</g>
<!-- [root] meta.count&#45;boundary (EachMode fixup)&#45;&gt;[root] azurerm_storage_container.remote_container (expand) -->
<g id="edge13" class="edge">
<title>[root] meta.count&#45;boundary (EachMode fixup)&#45;&gt;[root] azurerm_storage_container.remote_container (expand)</title>
<path fill="none" stroke="black" d="M754.07,-362.5C687.19,-351.81 595.65,-337.18 523.36,-325.62"/>
<polygon fill="black" stroke="black" points="523.71,-322.14 513.29,-324.01 522.61,-329.05 523.71,-322.14"/>
</g>
<!-- [root] provider[&quot;registry.terraform.io/hashicorp/azurerm&quot;] (close) -->
<g id="node14" class="node">
<title>[root] provider[&quot;registry.terraform.io/hashicorp/azurerm&quot;] (close)</title>
<ellipse fill="none" stroke="black" cx="406.83" cy="-378" rx="243.16" ry="18"/>
<text text-anchor="middle" x="406.83" y="-374.3" font-family="Times,serif" font-size="14.00">[root] provider[&quot;registry.terraform.io/hashicorp/azurerm&quot;] (close)</text>
</g>
<!-- [root] provider[&quot;registry.terraform.io/hashicorp/azurerm&quot;] (close)&#45;&gt;[root] azurerm_storage_account_network_rules.storage_network_rules (expand) -->
<g id="edge14" class="edge">
<title>[root] provider[&quot;registry.terraform.io/hashicorp/azurerm&quot;] (close)&#45;&gt;[root] azurerm_storage_account_network_rules.storage_network_rules (expand)</title>
<path fill="none" stroke="black" d="M483.64,-360.85C532.9,-350.5 597.1,-337 648.9,-326.11"/>
<polygon fill="black" stroke="black" points="649.69,-329.52 658.75,-324.04 648.25,-322.67 649.69,-329.52"/>
</g>
<!-- [root] provider[&quot;registry.terraform.io/hashicorp/azurerm&quot;] (close)&#45;&gt;[root] azurerm_storage_container.remote_container (expand) -->
<g id="edge15" class="edge">
<title>[root] provider[&quot;registry.terraform.io/hashicorp/azurerm&quot;] (close)&#45;&gt;[root] azurerm_storage_container.remote_container (expand)</title>
<path fill="none" stroke="black" d="M406.83,-359.7C406.83,-351.98 406.83,-342.71 406.83,-334.11"/>
<polygon fill="black" stroke="black" points="410.33,-334.1 406.83,-324.1 403.33,-334.1 410.33,-334.1"/>
</g>
<!-- [root] provider[&quot;registry.terraform.io/hashicorp/http&quot;] (close) -->
<g id="node15" class="node">
<title>[root] provider[&quot;registry.terraform.io/hashicorp/http&quot;] (close)</title>
<ellipse fill="none" stroke="black" cx="1168.83" cy="-306" rx="227.46" ry="18"/>
<text text-anchor="middle" x="1168.83" y="-302.3" font-family="Times,serif" font-size="14.00">[root] provider[&quot;registry.terraform.io/hashicorp/http&quot;] (close)</text>
</g>
<!-- [root] provider[&quot;registry.terraform.io/hashicorp/http&quot;] (close)&#45;&gt;[root] data.http.ip_address (expand) -->
<g id="edge16" class="edge">
<title>[root] provider[&quot;registry.terraform.io/hashicorp/http&quot;] (close)&#45;&gt;[root] data.http.ip_address (expand)</title>
<path fill="none" stroke="black" d="M1150.91,-288.05C1141.71,-279.35 1130.34,-268.59 1120.25,-259.04"/>
<polygon fill="black" stroke="black" points="1122.5,-256.36 1112.83,-252.03 1117.69,-261.45 1122.5,-256.36"/>
</g>
<!-- [root] root -->
<g id="node16" class="node">
<title>[root] root</title>
<ellipse fill="none" stroke="black" cx="844.83" cy="-450" rx="47.39" ry="18"/>
<text text-anchor="middle" x="844.83" y="-446.3" font-family="Times,serif" font-size="14.00">[root] root</text>
</g>
<!-- [root] root&#45;&gt;[root] meta.count&#45;boundary (EachMode fixup) -->
<g id="edge17" class="edge">
<title>[root] root&#45;&gt;[root] meta.count&#45;boundary (EachMode fixup)</title>
<path fill="none" stroke="black" d="M844.83,-431.7C844.83,-423.98 844.83,-414.71 844.83,-406.11"/>
<polygon fill="black" stroke="black" points="848.33,-406.1 844.83,-396.1 841.33,-406.1 848.33,-406.1"/>
</g>
<!-- [root] root&#45;&gt;[root] provider[&quot;registry.terraform.io/hashicorp/azurerm&quot;] (close) -->
<g id="edge18" class="edge">
<title>[root] root&#45;&gt;[root] provider[&quot;registry.terraform.io/hashicorp/azurerm&quot;] (close)</title>
<path fill="none" stroke="black" d="M802.03,-442.16C735.88,-431.59 606.77,-410.95 514.11,-396.14"/>
<polygon fill="black" stroke="black" points="514.55,-392.67 504.13,-394.55 513.45,-399.58 514.55,-392.67"/>
</g>
<!-- [root] root&#45;&gt;[root] provider[&quot;registry.terraform.io/hashicorp/http&quot;] (close) -->
<g id="edge19" class="edge">
<title>[root] root&#45;&gt;[root] provider[&quot;registry.terraform.io/hashicorp/http&quot;] (close)</title>
<path fill="none" stroke="black" d="M885.96,-440.95C924.48,-432.56 983.11,-417.61 1030.83,-396 1070.43,-378.07 1111.82,-349.92 1138.82,-330.09"/>
<polygon fill="black" stroke="black" points="1141.12,-332.74 1147.05,-323.96 1136.94,-327.12 1141.12,-332.74"/>
</g>
</g>
</svg>
