<?xml version="1.0" encoding="UTF-8" standalone="no"?>
<!DOCTYPE svg PUBLIC "-//W3C//DTD SVG 1.1//EN"
 "http://www.w3.org/Graphics/SVG/1.1/DTD/svg11.dtd">
<!-- Generated by graphviz version 2.50.0 (20211204.2007)
 -->
<!-- Pages: 1 -->
<svg width="1121pt" height="548pt"
 viewBox="0.00 0.00 1121.26 548.00" xmlns="http://www.w3.org/2000/svg" xmlns:xlink="http://www.w3.org/1999/xlink">
<g id="graph0" class="graph" transform="scale(1 1) rotate(0) translate(4 544)">
<polygon fill="white" stroke="transparent" points="-4,4 -4,-544 1117.26,-544 1117.26,4 -4,4"/>
<!-- [root] azurerm_linux_virtual_machine.vm (expand) -->
<g id="node1" class="node">
<title>[root] azurerm_linux_virtual_machine.vm (expand)</title>
<polygon fill="none" stroke="black" points="388.28,-396 175.28,-396 175.28,-360 388.28,-360 388.28,-396"/>
<text text-anchor="middle" x="281.78" y="-374.3" font-family="Times,serif" font-size="14.00">azurerm_linux_virtual_machine.vm</text>
</g>
<!-- [root] azurerm_network_interface.network_if (expand) -->
<g id="node2" class="node">
<title>[root] azurerm_network_interface.network_if (expand)</title>
<polygon fill="none" stroke="black" points="397.78,-324 167.78,-324 167.78,-288 397.78,-288 397.78,-324"/>
<text text-anchor="middle" x="282.78" y="-302.3" font-family="Times,serif" font-size="14.00">azurerm_network_interface.network_if</text>
</g>
<!-- [root] azurerm_linux_virtual_machine.vm (expand)&#45;&gt;[root] azurerm_network_interface.network_if (expand) -->
<g id="edge1" class="edge">
<title>[root] azurerm_linux_virtual_machine.vm (expand)&#45;&gt;[root] azurerm_network_interface.network_if (expand)</title>
<path fill="none" stroke="black" d="M282.03,-359.7C282.14,-351.98 282.27,-342.71 282.4,-334.11"/>
<polygon fill="black" stroke="black" points="285.9,-334.15 282.54,-324.1 278.9,-334.05 285.9,-334.15"/>
</g>
<!-- [root] azurerm_public_ip.public_ip (expand) -->
<g id="node5" class="node">
<title>[root] azurerm_public_ip.public_ip (expand)</title>
<polygon fill="none" stroke="black" points="215.78,-252 41.78,-252 41.78,-216 215.78,-216 215.78,-252"/>
<text text-anchor="middle" x="128.78" y="-230.3" font-family="Times,serif" font-size="14.00">azurerm_public_ip.public_ip</text>
</g>
<!-- [root] azurerm_network_interface.network_if (expand)&#45;&gt;[root] azurerm_public_ip.public_ip (expand) -->
<g id="edge2" class="edge">
<title>[root] azurerm_network_interface.network_if (expand)&#45;&gt;[root] azurerm_public_ip.public_ip (expand)</title>
<path fill="none" stroke="black" d="M245.11,-287.88C224.15,-278.35 197.88,-266.41 175.61,-256.28"/>
<polygon fill="black" stroke="black" points="176.89,-253.02 166.33,-252.07 173.99,-259.39 176.89,-253.02"/>
</g>
<!-- [root] azurerm_subnet.subnet (expand) -->
<g id="node7" class="node">
<title>[root] azurerm_subnet.subnet (expand)</title>
<polygon fill="none" stroke="black" points="377.28,-252 234.28,-252 234.28,-216 377.28,-216 377.28,-252"/>
<text text-anchor="middle" x="305.78" y="-230.3" font-family="Times,serif" font-size="14.00">azurerm_subnet.subnet</text>
</g>
<!-- [root] azurerm_network_interface.network_if (expand)&#45;&gt;[root] azurerm_subnet.subnet (expand) -->
<g id="edge3" class="edge">
<title>[root] azurerm_network_interface.network_if (expand)&#45;&gt;[root] azurerm_subnet.subnet (expand)</title>
<path fill="none" stroke="black" d="M288.47,-287.7C291.03,-279.9 294.12,-270.51 296.97,-261.83"/>
<polygon fill="black" stroke="black" points="300.37,-262.7 300.16,-252.1 293.72,-260.51 300.37,-262.7"/>
</g>
<!-- [root] azurerm_network_interface_security_group_association.sec_group_assoc (expand) -->
<g id="node3" class="node">
<title>[root] azurerm_network_interface_security_group_association.sec_group_assoc (expand)</title>
<polygon fill="none" stroke="black" points="822.78,-396 406.78,-396 406.78,-360 822.78,-360 822.78,-396"/>
<text text-anchor="middle" x="614.78" y="-374.3" font-family="Times,serif" font-size="14.00">azurerm_network_interface_security_group_association.sec_group_assoc</text>
</g>
<!-- [root] azurerm_network_interface_security_group_association.sec_group_assoc (expand)&#45;&gt;[root] azurerm_network_interface.network_if (expand) -->
<g id="edge4" class="edge">
<title>[root] azurerm_network_interface_security_group_association.sec_group_assoc (expand)&#45;&gt;[root] azurerm_network_interface.network_if (expand)</title>
<path fill="none" stroke="black" d="M533.99,-359.97C485.5,-349.74 423.69,-336.71 373.52,-326.13"/>
<polygon fill="black" stroke="black" points="374.16,-322.69 363.65,-324.05 372.71,-329.54 374.16,-322.69"/>
</g>
<!-- [root] azurerm_network_security_group.nsg (expand) -->
<g id="node4" class="node">
<title>[root] azurerm_network_security_group.nsg (expand)</title>
<polygon fill="none" stroke="black" points="640.28,-324 417.28,-324 417.28,-288 640.28,-288 640.28,-324"/>
<text text-anchor="middle" x="528.78" y="-302.3" font-family="Times,serif" font-size="14.00">azurerm_network_security_group.nsg</text>
</g>
<!-- [root] azurerm_network_interface_security_group_association.sec_group_assoc (expand)&#45;&gt;[root] azurerm_network_security_group.nsg (expand) -->
<g id="edge5" class="edge">
<title>[root] azurerm_network_interface_security_group_association.sec_group_assoc (expand)&#45;&gt;[root] azurerm_network_security_group.nsg (expand)</title>
<path fill="none" stroke="black" d="M593.53,-359.7C582.69,-350.88 569.37,-340.03 557.62,-330.47"/>
<polygon fill="black" stroke="black" points="559.76,-327.7 549.8,-324.1 555.34,-333.13 559.76,-327.7"/>
</g>
<!-- [root] azurerm_resource_group.rg (expand) -->
<g id="node6" class="node">
<title>[root] azurerm_resource_group.rg (expand)</title>
<polygon fill="none" stroke="black" points="389.28,-108 222.28,-108 222.28,-72 389.28,-72 389.28,-108"/>
<text text-anchor="middle" x="305.78" y="-86.3" font-family="Times,serif" font-size="14.00">azurerm_resource_group.rg</text>
</g>
<!-- [root] azurerm_network_security_group.nsg (expand)&#45;&gt;[root] azurerm_resource_group.rg (expand) -->
<g id="edge6" class="edge">
<title>[root] azurerm_network_security_group.nsg (expand)&#45;&gt;[root] azurerm_resource_group.rg (expand)</title>
<path fill="none" stroke="black" d="M519.08,-287.78C500.51,-256.03 457.18,-187.54 405.78,-144 391.24,-131.68 373.35,-121.08 356.75,-112.67"/>
<polygon fill="black" stroke="black" points="358.21,-109.49 347.69,-108.23 355.12,-115.77 358.21,-109.49"/>
</g>
<!-- [root] data.http.ip_address (expand) -->
<g id="node9" class="node">
<title>[root] data.http.ip_address (expand)</title>
<polygon fill="none" stroke="black" points="884.28,-252 759.28,-252 759.28,-216 884.28,-216 884.28,-252"/>
<text text-anchor="middle" x="821.78" y="-230.3" font-family="Times,serif" font-size="14.00">data.http.ip_address</text>
</g>
<!-- [root] azurerm_network_security_group.nsg (expand)&#45;&gt;[root] data.http.ip_address (expand) -->
<g id="edge7" class="edge">
<title>[root] azurerm_network_security_group.nsg (expand)&#45;&gt;[root] data.http.ip_address (expand)</title>
<path fill="none" stroke="black" d="M600.09,-287.97C645.38,-277.14 703.83,-263.18 749.34,-252.31"/>
<polygon fill="black" stroke="black" points="750.22,-255.69 759.14,-249.97 748.6,-248.89 750.22,-255.69"/>
</g>
<!-- [root] azurerm_public_ip.public_ip (expand)&#45;&gt;[root] azurerm_resource_group.rg (expand) -->
<g id="edge8" class="edge">
<title>[root] azurerm_public_ip.public_ip (expand)&#45;&gt;[root] azurerm_resource_group.rg (expand)</title>
<path fill="none" stroke="black" d="M140.55,-215.92C154.46,-196.65 179.09,-165.25 205.78,-144 221.09,-131.81 239.61,-121.09 256.54,-112.53"/>
<polygon fill="black" stroke="black" points="258.32,-115.56 265.75,-108.01 255.23,-109.28 258.32,-115.56"/>
</g>
<!-- [root] provider[&quot;registry.terraform.io/hashicorp/azurerm&quot;] -->
<g id="node11" class="node">
<title>[root] provider[&quot;registry.terraform.io/hashicorp/azurerm&quot;]</title>
<polygon fill="none" stroke="black" points="305.78,-36 31.13,-18 305.78,0 580.44,-18 305.78,-36"/>
<text text-anchor="middle" x="305.78" y="-14.3" font-family="Times,serif" font-size="14.00">provider[&quot;registry.terraform.io/hashicorp/azurerm&quot;]</text>
</g>
<!-- [root] azurerm_resource_group.rg (expand)&#45;&gt;[root] provider[&quot;registry.terraform.io/hashicorp/azurerm&quot;] -->
<g id="edge9" class="edge">
<title>[root] azurerm_resource_group.rg (expand)&#45;&gt;[root] provider[&quot;registry.terraform.io/hashicorp/azurerm&quot;]</title>
<path fill="none" stroke="black" d="M305.78,-71.7C305.78,-63.98 305.78,-54.71 305.78,-46.11"/>
<polygon fill="black" stroke="black" points="309.28,-46.1 305.78,-36.1 302.28,-46.1 309.28,-46.1"/>
</g>
<!-- [root] azurerm_virtual_network.vnet (expand) -->
<g id="node8" class="node">
<title>[root] azurerm_virtual_network.vnet (expand)</title>
<polygon fill="none" stroke="black" points="396.78,-180 214.78,-180 214.78,-144 396.78,-144 396.78,-180"/>
<text text-anchor="middle" x="305.78" y="-158.3" font-family="Times,serif" font-size="14.00">azurerm_virtual_network.vnet</text>
</g>
<!-- [root] azurerm_subnet.subnet (expand)&#45;&gt;[root] azurerm_virtual_network.vnet (expand) -->
<g id="edge10" class="edge">
<title>[root] azurerm_subnet.subnet (expand)&#45;&gt;[root] azurerm_virtual_network.vnet (expand)</title>
<path fill="none" stroke="black" d="M305.78,-215.7C305.78,-207.98 305.78,-198.71 305.78,-190.11"/>
<polygon fill="black" stroke="black" points="309.28,-190.1 305.78,-180.1 302.28,-190.1 309.28,-190.1"/>
</g>
<!-- [root] azurerm_virtual_network.vnet (expand)&#45;&gt;[root] azurerm_resource_group.rg (expand) -->
<g id="edge11" class="edge">
<title>[root] azurerm_virtual_network.vnet (expand)&#45;&gt;[root] azurerm_resource_group.rg (expand)</title>
<path fill="none" stroke="black" d="M305.78,-143.7C305.78,-135.98 305.78,-126.71 305.78,-118.11"/>
<polygon fill="black" stroke="black" points="309.28,-118.1 305.78,-108.1 302.28,-118.1 309.28,-118.1"/>
</g>
<!-- [root] provider[&quot;registry.terraform.io/hashicorp/http&quot;] -->
<g id="node12" class="node">
<title>[root] provider[&quot;registry.terraform.io/hashicorp/http&quot;]</title>
<polygon fill="none" stroke="black" points="821.78,-180 569.25,-162 821.78,-144 1074.32,-162 821.78,-180"/>
<text text-anchor="middle" x="821.78" y="-158.3" font-family="Times,serif" font-size="14.00">provider[&quot;registry.terraform.io/hashicorp/http&quot;]</text>
</g>
<!-- [root] data.http.ip_address (expand)&#45;&gt;[root] provider[&quot;registry.terraform.io/hashicorp/http&quot;] -->
<g id="edge12" class="edge">
<title>[root] data.http.ip_address (expand)&#45;&gt;[root] provider[&quot;registry.terraform.io/hashicorp/http&quot;]</title>
<path fill="none" stroke="black" d="M821.78,-215.7C821.78,-207.98 821.78,-198.71 821.78,-190.11"/>
<polygon fill="black" stroke="black" points="825.28,-190.1 821.78,-180.1 818.28,-190.1 825.28,-190.1"/>
</g>
<!-- [root] output.public_ip_address -->
<g id="node10" class="node">
<title>[root] output.public_ip_address</title>
<polygon fill="none" stroke="black" points="151.28,-396 4.28,-396 4.28,-360 157.28,-360 157.28,-390 151.28,-396"/>
<polyline fill="none" stroke="black" points="151.28,-396 151.28,-390 "/>
<polyline fill="none" stroke="black" points="157.28,-390 151.28,-390 "/>
<text text-anchor="middle" x="80.78" y="-374.3" font-family="Times,serif" font-size="14.00">output.public_ip_address</text>
</g>
<!-- [root] output.public_ip_address&#45;&gt;[root] azurerm_public_ip.public_ip (expand) -->
<g id="edge16" class="edge">
<title>[root] output.public_ip_address&#45;&gt;[root] azurerm_public_ip.public_ip (expand)</title>
<path fill="none" stroke="black" d="M86.57,-359.87C94.79,-335.56 109.92,-290.82 119.65,-262.01"/>
<polygon fill="black" stroke="black" points="123.09,-262.78 122.97,-252.19 116.46,-260.54 123.09,-262.78"/>
</g>
<!-- [root] meta.count&#45;boundary (EachMode fixup) -->
<g id="node13" class="node">
<title>[root] meta.count&#45;boundary (EachMode fixup)</title>
<ellipse fill="none" stroke="black" cx="176.78" cy="-450" rx="176.57" ry="18"/>
<text text-anchor="middle" x="176.78" y="-446.3" font-family="Times,serif" font-size="14.00">[root] meta.count&#45;boundary (EachMode fixup)</text>
</g>
<!-- [root] meta.count&#45;boundary (EachMode fixup)&#45;&gt;[root] azurerm_linux_virtual_machine.vm (expand) -->
<g id="edge13" class="edge">
<title>[root] meta.count&#45;boundary (EachMode fixup)&#45;&gt;[root] azurerm_linux_virtual_machine.vm (expand)</title>
<path fill="none" stroke="black" d="M202.2,-432.05C215.9,-422.92 232.99,-411.53 247.81,-401.65"/>
<polygon fill="black" stroke="black" points="249.86,-404.49 256.24,-396.03 245.97,-398.67 249.86,-404.49"/>
</g>
<!-- [root] meta.count&#45;boundary (EachMode fixup)&#45;&gt;[root] azurerm_network_interface_security_group_association.sec_group_assoc (expand) -->
<g id="edge14" class="edge">
<title>[root] meta.count&#45;boundary (EachMode fixup)&#45;&gt;[root] azurerm_network_interface_security_group_association.sec_group_assoc (expand)</title>
<path fill="none" stroke="black" d="M267.54,-434.5C334.43,-423.81 425.96,-409.18 498.26,-397.62"/>
<polygon fill="black" stroke="black" points="499,-401.05 508.33,-396.01 497.9,-394.14 499,-401.05"/>
</g>
<!-- [root] meta.count&#45;boundary (EachMode fixup)&#45;&gt;[root] output.public_ip_address -->
<g id="edge15" class="edge">
<title>[root] meta.count&#45;boundary (EachMode fixup)&#45;&gt;[root] output.public_ip_address</title>
<path fill="none" stroke="black" d="M153.55,-432.05C141.14,-423.01 125.69,-411.74 112.23,-401.93"/>
<polygon fill="black" stroke="black" points="114.28,-399.1 104.14,-396.03 110.16,-404.75 114.28,-399.1"/>
</g>
<!-- [root] provider[&quot;registry.terraform.io/hashicorp/azurerm&quot;] (close) -->
<g id="node14" class="node">
<title>[root] provider[&quot;registry.terraform.io/hashicorp/azurerm&quot;] (close)</title>
<ellipse fill="none" stroke="black" cx="614.78" cy="-450" rx="243.16" ry="18"/>
<text text-anchor="middle" x="614.78" y="-446.3" font-family="Times,serif" font-size="14.00">[root] provider[&quot;registry.terraform.io/hashicorp/azurerm&quot;] (close)</text>
</g>
<!-- [root] provider[&quot;registry.terraform.io/hashicorp/azurerm&quot;] (close)&#45;&gt;[root] azurerm_linux_virtual_machine.vm (expand) -->
<g id="edge17" class="edge">
<title>[root] provider[&quot;registry.terraform.io/hashicorp/azurerm&quot;] (close)&#45;&gt;[root] azurerm_linux_virtual_machine.vm (expand)</title>
<path fill="none" stroke="black" d="M537.97,-432.85C488.71,-422.5 424.52,-409 372.71,-398.11"/>
<polygon fill="black" stroke="black" points="373.36,-394.67 362.86,-396.04 371.92,-401.52 373.36,-394.67"/>
</g>
<!-- [root] provider[&quot;registry.terraform.io/hashicorp/azurerm&quot;] (close)&#45;&gt;[root] azurerm_network_interface_security_group_association.sec_group_assoc (expand) -->
<g id="edge18" class="edge">
<title>[root] provider[&quot;registry.terraform.io/hashicorp/azurerm&quot;] (close)&#45;&gt;[root] azurerm_network_interface_security_group_association.sec_group_assoc (expand)</title>
<path fill="none" stroke="black" d="M614.78,-431.7C614.78,-423.98 614.78,-414.71 614.78,-406.11"/>
<polygon fill="black" stroke="black" points="618.28,-406.1 614.78,-396.1 611.28,-406.1 618.28,-406.1"/>
</g>
<!-- [root] provider[&quot;registry.terraform.io/hashicorp/http&quot;] (close) -->
<g id="node15" class="node">
<title>[root] provider[&quot;registry.terraform.io/hashicorp/http&quot;] (close)</title>
<ellipse fill="none" stroke="black" cx="885.78" cy="-306" rx="227.46" ry="18"/>
<text text-anchor="middle" x="885.78" y="-302.3" font-family="Times,serif" font-size="14.00">[root] provider[&quot;registry.terraform.io/hashicorp/http&quot;] (close)</text>
</g>
<!-- [root] provider[&quot;registry.terraform.io/hashicorp/http&quot;] (close)&#45;&gt;[root] data.http.ip_address (expand) -->
<g id="edge19" class="edge">
<title>[root] provider[&quot;registry.terraform.io/hashicorp/http&quot;] (close)&#45;&gt;[root] data.http.ip_address (expand)</title>
<path fill="none" stroke="black" d="M869.96,-287.7C862.21,-279.22 852.75,-268.86 844.26,-259.58"/>
<polygon fill="black" stroke="black" points="846.75,-257.12 837.42,-252.1 841.59,-261.85 846.75,-257.12"/>
</g>
<!-- [root] root -->
<g id="node16" class="node">
<title>[root] root</title>
<ellipse fill="none" stroke="black" cx="614.78" cy="-522" rx="47.39" ry="18"/>
<text text-anchor="middle" x="614.78" y="-518.3" font-family="Times,serif" font-size="14.00">[root] root</text>
</g>
<!-- [root] root&#45;&gt;[root] meta.count&#45;boundary (EachMode fixup) -->
<g id="edge20" class="edge">
<title>[root] root&#45;&gt;[root] meta.count&#45;boundary (EachMode fixup)</title>
<path fill="none" stroke="black" d="M571.99,-514.16C504.28,-503.34 370.61,-481.98 277.58,-467.11"/>
<polygon fill="black" stroke="black" points="278,-463.63 267.58,-465.51 276.9,-470.54 278,-463.63"/>
</g>
<!-- [root] root&#45;&gt;[root] provider[&quot;registry.terraform.io/hashicorp/azurerm&quot;] (close) -->
<g id="edge21" class="edge">
<title>[root] root&#45;&gt;[root] provider[&quot;registry.terraform.io/hashicorp/azurerm&quot;] (close)</title>
<path fill="none" stroke="black" d="M614.78,-503.7C614.78,-495.98 614.78,-486.71 614.78,-478.11"/>
<polygon fill="black" stroke="black" points="618.28,-478.1 614.78,-468.1 611.28,-478.1 618.28,-478.1"/>
</g>
<!-- [root] root&#45;&gt;[root] provider[&quot;registry.terraform.io/hashicorp/http&quot;] (close) -->
<g id="edge22" class="edge">
<title>[root] root&#45;&gt;[root] provider[&quot;registry.terraform.io/hashicorp/http&quot;] (close)</title>
<path fill="none" stroke="black" d="M661.05,-517.61C726.08,-511.84 839.64,-497.7 866.78,-468 900,-431.66 896.69,-369.82 891.27,-334.29"/>
<polygon fill="black" stroke="black" points="894.68,-333.44 889.56,-324.17 887.77,-334.61 894.68,-333.44"/>
</g>
</g>
</svg>
