<?xml version="1.0" encoding="UTF-8" standalone="no"?>
<!DOCTYPE svg PUBLIC "-//W3C//DTD SVG 1.1//EN"
 "http://www.w3.org/Graphics/SVG/1.1/DTD/svg11.dtd">
<!-- Generated by graphviz version 2.50.0 (20211204.2007)
 -->
<!-- Pages: 1 -->
<svg width="1793pt" height="620pt"
 viewBox="0.00 0.00 1792.60 620.00" xmlns="http://www.w3.org/2000/svg" xmlns:xlink="http://www.w3.org/1999/xlink">
<g id="graph0" class="graph" transform="scale(1 1) rotate(0) translate(4 616)">
<polygon fill="white" stroke="transparent" points="-4,4 -4,-616 1788.6,-616 1788.6,4 -4,4"/>
<!-- [root] azurerm_availability_set.availability&#45;set (expand) -->
<g id="node1" class="node">
<title>[root] azurerm_availability_set.availability&#45;set (expand)</title>
<polygon fill="none" stroke="black" points="503.33,-468 268.33,-468 268.33,-432 503.33,-432 503.33,-468"/>
<text text-anchor="middle" x="385.83" y="-446.3" font-family="Times,serif" font-size="14.00">azurerm_availability_set.availability&#45;set</text>
</g>
<!-- [root] azurerm_resource_group.rg (expand) -->
<g id="node6" class="node">
<title>[root] azurerm_resource_group.rg (expand)</title>
<polygon fill="none" stroke="black" points="728.33,-180 561.33,-180 561.33,-144 728.33,-144 728.33,-180"/>
<text text-anchor="middle" x="644.83" y="-158.3" font-family="Times,serif" font-size="14.00">azurerm_resource_group.rg</text>
</g>
<!-- [root] azurerm_availability_set.availability&#45;set (expand)&#45;&gt;[root] azurerm_resource_group.rg (expand) -->
<g id="edge1" class="edge">
<title>[root] azurerm_availability_set.availability&#45;set (expand)&#45;&gt;[root] azurerm_resource_group.rg (expand)</title>
<path fill="none" stroke="black" d="M268.23,-432.68C216.35,-419.99 172.1,-397.89 196.83,-360 275.11,-240.07 444.53,-192.66 551.14,-174.27"/>
<polygon fill="black" stroke="black" points="551.97,-177.68 561.25,-172.58 550.81,-170.78 551.97,-177.68"/>
</g>
<!-- [root] azurerm_linux_virtual_machine.vm (expand) -->
<g id="node2" class="node">
<title>[root] azurerm_linux_virtual_machine.vm (expand)</title>
<polygon fill="none" stroke="black" points="833.33,-468 620.33,-468 620.33,-432 833.33,-432 833.33,-468"/>
<text text-anchor="middle" x="726.83" y="-446.3" font-family="Times,serif" font-size="14.00">azurerm_linux_virtual_machine.vm</text>
</g>
<!-- [root] azurerm_network_interface.network_interface (expand) -->
<g id="node3" class="node">
<title>[root] azurerm_network_interface.network_interface (expand)</title>
<polygon fill="none" stroke="black" points="861.33,-396 592.33,-396 592.33,-360 861.33,-360 861.33,-396"/>
<text text-anchor="middle" x="726.83" y="-374.3" font-family="Times,serif" font-size="14.00">azurerm_network_interface.network_interface</text>
</g>
<!-- [root] azurerm_linux_virtual_machine.vm (expand)&#45;&gt;[root] azurerm_network_interface.network_interface (expand) -->
<g id="edge2" class="edge">
<title>[root] azurerm_linux_virtual_machine.vm (expand)&#45;&gt;[root] azurerm_network_interface.network_interface (expand)</title>
<path fill="none" stroke="black" d="M726.83,-431.7C726.83,-423.98 726.83,-414.71 726.83,-406.11"/>
<polygon fill="black" stroke="black" points="730.33,-406.1 726.83,-396.1 723.33,-406.1 730.33,-406.1"/>
</g>
<!-- [root] var.diskSize -->
<g id="node15" class="node">
<title>[root] var.diskSize</title>
<polygon fill="none" stroke="black" points="487.33,-396 410.33,-396 410.33,-360 493.33,-360 493.33,-390 487.33,-396"/>
<polyline fill="none" stroke="black" points="487.33,-396 487.33,-390 "/>
<polyline fill="none" stroke="black" points="493.33,-390 487.33,-390 "/>
<text text-anchor="middle" x="451.83" y="-374.3" font-family="Times,serif" font-size="14.00">var.diskSize</text>
</g>
<!-- [root] azurerm_linux_virtual_machine.vm (expand)&#45;&gt;[root] var.diskSize -->
<g id="edge3" class="edge">
<title>[root] azurerm_linux_virtual_machine.vm (expand)&#45;&gt;[root] var.diskSize</title>
<path fill="none" stroke="black" d="M647.08,-431.95C606.53,-422.85 556.36,-410.94 503.11,-395.95"/>
<polygon fill="black" stroke="black" points="504.06,-392.59 493.48,-393.22 502.15,-399.32 504.06,-392.59"/>
</g>
<!-- [root] var.offer -->
<g id="node17" class="node">
<title>[root] var.offer</title>
<polygon fill="none" stroke="black" points="568.33,-396 511.33,-396 511.33,-360 574.33,-360 574.33,-390 568.33,-396"/>
<polyline fill="none" stroke="black" points="568.33,-396 568.33,-390 "/>
<polyline fill="none" stroke="black" points="574.33,-390 568.33,-390 "/>
<text text-anchor="middle" x="542.83" y="-374.3" font-family="Times,serif" font-size="14.00">var.offer</text>
</g>
<!-- [root] azurerm_linux_virtual_machine.vm (expand)&#45;&gt;[root] var.offer -->
<g id="edge4" class="edge">
<title>[root] azurerm_linux_virtual_machine.vm (expand)&#45;&gt;[root] var.offer</title>
<path fill="none" stroke="black" d="M679.31,-431.9C653.59,-422.53 621.06,-410.49 584.06,-396.03"/>
<polygon fill="black" stroke="black" points="585.15,-392.69 574.56,-392.3 582.59,-399.21 585.15,-392.69"/>
</g>
<!-- [root] var.osVersion -->
<g id="node18" class="node">
<title>[root] var.osVersion</title>
<polygon fill="none" stroke="black" points="963.83,-396 879.83,-396 879.83,-360 969.83,-360 969.83,-390 963.83,-396"/>
<polyline fill="none" stroke="black" points="963.83,-396 963.83,-390 "/>
<polyline fill="none" stroke="black" points="969.83,-390 963.83,-390 "/>
<text text-anchor="middle" x="924.83" y="-374.3" font-family="Times,serif" font-size="14.00">var.osVersion</text>
</g>
<!-- [root] azurerm_linux_virtual_machine.vm (expand)&#45;&gt;[root] var.osVersion -->
<g id="edge5" class="edge">
<title>[root] azurerm_linux_virtual_machine.vm (expand)&#45;&gt;[root] var.osVersion</title>
<path fill="none" stroke="black" d="M775.01,-431.97C803.6,-421.86 839.95,-409.01 869.68,-398.5"/>
<polygon fill="black" stroke="black" points="871.23,-401.66 879.49,-395.03 868.9,-395.06 871.23,-401.66"/>
</g>
<!-- [root] var.publisher -->
<g id="node19" class="node">
<title>[root] var.publisher</title>
<polygon fill="none" stroke="black" points="1069.33,-396 988.33,-396 988.33,-360 1075.33,-360 1075.33,-390 1069.33,-396"/>
<polyline fill="none" stroke="black" points="1069.33,-396 1069.33,-390 "/>
<polyline fill="none" stroke="black" points="1075.33,-390 1069.33,-390 "/>
<text text-anchor="middle" x="1031.83" y="-374.3" font-family="Times,serif" font-size="14.00">var.publisher</text>
</g>
<!-- [root] azurerm_linux_virtual_machine.vm (expand)&#45;&gt;[root] var.publisher -->
<g id="edge6" class="edge">
<title>[root] azurerm_linux_virtual_machine.vm (expand)&#45;&gt;[root] var.publisher</title>
<path fill="none" stroke="black" d="M818.93,-432C864.36,-423.05 920.08,-411.23 978.48,-395.95"/>
<polygon fill="black" stroke="black" points="979.49,-399.31 988.26,-393.37 977.7,-392.54 979.49,-399.31"/>
</g>
<!-- [root] var.sku -->
<g id="node21" class="node">
<title>[root] var.sku</title>
<polygon fill="none" stroke="black" points="1143.83,-396 1093.83,-396 1093.83,-360 1149.83,-360 1149.83,-390 1143.83,-396"/>
<polyline fill="none" stroke="black" points="1143.83,-396 1143.83,-390 "/>
<polyline fill="none" stroke="black" points="1149.83,-390 1143.83,-390 "/>
<text text-anchor="middle" x="1121.83" y="-374.3" font-family="Times,serif" font-size="14.00">var.sku</text>
</g>
<!-- [root] azurerm_linux_virtual_machine.vm (expand)&#45;&gt;[root] var.sku -->
<g id="edge7" class="edge">
<title>[root] azurerm_linux_virtual_machine.vm (expand)&#45;&gt;[root] var.sku</title>
<path fill="none" stroke="black" d="M833.49,-441.18C903.05,-434.23 995.55,-421.46 1083.82,-395.85"/>
<polygon fill="black" stroke="black" points="1084.86,-399.2 1093.46,-393 1082.87,-392.49 1084.86,-399.2"/>
</g>
<!-- [root] var.storageAccType -->
<g id="node22" class="node">
<title>[root] var.storageAccType</title>
<polygon fill="none" stroke="black" points="1287.33,-396 1168.33,-396 1168.33,-360 1293.33,-360 1293.33,-390 1287.33,-396"/>
<polyline fill="none" stroke="black" points="1287.33,-396 1287.33,-390 "/>
<polyline fill="none" stroke="black" points="1293.33,-390 1287.33,-390 "/>
<text text-anchor="middle" x="1230.83" y="-374.3" font-family="Times,serif" font-size="14.00">var.storageAccType</text>
</g>
<!-- [root] azurerm_linux_virtual_machine.vm (expand)&#45;&gt;[root] var.storageAccType -->
<g id="edge8" class="edge">
<title>[root] azurerm_linux_virtual_machine.vm (expand)&#45;&gt;[root] var.storageAccType</title>
<path fill="none" stroke="black" d="M833.39,-439.22C918.64,-430.63 1041.37,-416.55 1157.91,-396.05"/>
<polygon fill="black" stroke="black" points="1158.85,-399.44 1168.08,-394.24 1157.63,-392.55 1158.85,-399.44"/>
</g>
<!-- [root] var.username -->
<g id="node24" class="node">
<title>[root] var.username</title>
<polygon fill="none" stroke="black" points="289.33,-396 206.33,-396 206.33,-360 295.33,-360 295.33,-390 289.33,-396"/>
<polyline fill="none" stroke="black" points="289.33,-396 289.33,-390 "/>
<polyline fill="none" stroke="black" points="295.33,-390 289.33,-390 "/>
<text text-anchor="middle" x="250.83" y="-374.3" font-family="Times,serif" font-size="14.00">var.username</text>
</g>
<!-- [root] azurerm_linux_virtual_machine.vm (expand)&#45;&gt;[root] var.username -->
<g id="edge9" class="edge">
<title>[root] azurerm_linux_virtual_machine.vm (expand)&#45;&gt;[root] var.username</title>
<path fill="none" stroke="black" d="M620.14,-440.95C536.71,-433.41 417.83,-419.94 305.27,-395.86"/>
<polygon fill="black" stroke="black" points="305.96,-392.43 295.45,-393.73 304.48,-399.27 305.96,-392.43"/>
</g>
<!-- [root] var.vmSize -->
<g id="node25" class="node">
<title>[root] var.vmSize</title>
<polygon fill="none" stroke="black" points="385.83,-396 313.83,-396 313.83,-360 391.83,-360 391.83,-390 385.83,-396"/>
<polyline fill="none" stroke="black" points="385.83,-396 385.83,-390 "/>
<polyline fill="none" stroke="black" points="391.83,-390 385.83,-390 "/>
<text text-anchor="middle" x="352.83" y="-374.3" font-family="Times,serif" font-size="14.00">var.vmSize</text>
</g>
<!-- [root] azurerm_linux_virtual_machine.vm (expand)&#45;&gt;[root] var.vmSize -->
<g id="edge10" class="edge">
<title>[root] azurerm_linux_virtual_machine.vm (expand)&#45;&gt;[root] var.vmSize</title>
<path fill="none" stroke="black" d="M620.13,-436.32C556.24,-427.56 473.74,-414.19 401.83,-396 401.73,-395.97 401.63,-395.95 401.52,-395.92"/>
<polygon fill="black" stroke="black" points="402.54,-392.57 391.96,-393.24 400.65,-399.31 402.54,-392.57"/>
</g>
<!-- [root] azurerm_public_ip.public_ip (expand) -->
<g id="node5" class="node">
<title>[root] azurerm_public_ip.public_ip (expand)</title>
<polygon fill="none" stroke="black" points="669.83,-324 495.83,-324 495.83,-288 669.83,-288 669.83,-324"/>
<text text-anchor="middle" x="582.83" y="-302.3" font-family="Times,serif" font-size="14.00">azurerm_public_ip.public_ip</text>
</g>
<!-- [root] azurerm_network_interface.network_interface (expand)&#45;&gt;[root] azurerm_public_ip.public_ip (expand) -->
<g id="edge11" class="edge">
<title>[root] azurerm_network_interface.network_interface (expand)&#45;&gt;[root] azurerm_public_ip.public_ip (expand)</title>
<path fill="none" stroke="black" d="M691.6,-359.88C672.25,-350.47 648.06,-338.71 627.4,-328.67"/>
<polygon fill="black" stroke="black" points="628.71,-325.41 618.19,-324.19 625.65,-331.71 628.71,-325.41"/>
</g>
<!-- [root] azurerm_subnet.subnet (expand) -->
<g id="node7" class="node">
<title>[root] azurerm_subnet.subnet (expand)</title>
<polygon fill="none" stroke="black" points="927.33,-324 784.33,-324 784.33,-288 927.33,-288 927.33,-324"/>
<text text-anchor="middle" x="855.83" y="-302.3" font-family="Times,serif" font-size="14.00">azurerm_subnet.subnet</text>
</g>
<!-- [root] azurerm_network_interface.network_interface (expand)&#45;&gt;[root] azurerm_subnet.subnet (expand) -->
<g id="edge12" class="edge">
<title>[root] azurerm_network_interface.network_interface (expand)&#45;&gt;[root] azurerm_subnet.subnet (expand)</title>
<path fill="none" stroke="black" d="M758.38,-359.88C775.49,-350.6 796.81,-339.03 815.15,-329.08"/>
<polygon fill="black" stroke="black" points="817.03,-332.04 824.15,-324.19 813.69,-325.88 817.03,-332.04"/>
</g>
<!-- [root] var.acc_net -->
<g id="node14" class="node">
<title>[root] var.acc_net</title>
<polygon fill="none" stroke="black" points="759.83,-324 687.83,-324 687.83,-288 765.83,-288 765.83,-318 759.83,-324"/>
<polyline fill="none" stroke="black" points="759.83,-324 759.83,-318 "/>
<polyline fill="none" stroke="black" points="765.83,-318 759.83,-318 "/>
<text text-anchor="middle" x="726.83" y="-302.3" font-family="Times,serif" font-size="14.00">var.acc_net</text>
</g>
<!-- [root] azurerm_network_interface.network_interface (expand)&#45;&gt;[root] var.acc_net -->
<g id="edge13" class="edge">
<title>[root] azurerm_network_interface.network_interface (expand)&#45;&gt;[root] var.acc_net</title>
<path fill="none" stroke="black" d="M726.83,-359.7C726.83,-351.98 726.83,-342.71 726.83,-334.11"/>
<polygon fill="black" stroke="black" points="730.33,-334.1 726.83,-324.1 723.33,-334.1 730.33,-334.1"/>
</g>
<!-- [root] azurerm_network_security_group.nsg (expand) -->
<g id="node4" class="node">
<title>[root] azurerm_network_security_group.nsg (expand)</title>
<polygon fill="none" stroke="black" points="1573.33,-396 1350.33,-396 1350.33,-360 1573.33,-360 1573.33,-396"/>
<text text-anchor="middle" x="1461.83" y="-374.3" font-family="Times,serif" font-size="14.00">azurerm_network_security_group.nsg</text>
</g>
<!-- [root] azurerm_network_security_group.nsg (expand)&#45;&gt;[root] azurerm_resource_group.rg (expand) -->
<g id="edge14" class="edge">
<title>[root] azurerm_network_security_group.nsg (expand)&#45;&gt;[root] azurerm_resource_group.rg (expand)</title>
<path fill="none" stroke="black" d="M1407.95,-359.91C1308.83,-328.82 1090.58,-261.97 903.83,-216 849.42,-202.61 788,-189.93 738.63,-180.34"/>
<polygon fill="black" stroke="black" points="739.08,-176.86 728.6,-178.4 737.76,-183.74 739.08,-176.86"/>
</g>
<!-- [root] data.http.ip_address (expand) -->
<g id="node10" class="node">
<title>[root] data.http.ip_address (expand)</title>
<polygon fill="none" stroke="black" points="1594.33,-324 1469.33,-324 1469.33,-288 1594.33,-288 1594.33,-324"/>
<text text-anchor="middle" x="1531.83" y="-302.3" font-family="Times,serif" font-size="14.00">data.http.ip_address</text>
</g>
<!-- [root] azurerm_network_security_group.nsg (expand)&#45;&gt;[root] data.http.ip_address (expand) -->
<g id="edge15" class="edge">
<title>[root] azurerm_network_security_group.nsg (expand)&#45;&gt;[root] data.http.ip_address (expand)</title>
<path fill="none" stroke="black" d="M1479.13,-359.7C1487.69,-351.14 1498.17,-340.66 1507.52,-331.3"/>
<polygon fill="black" stroke="black" points="1510.13,-333.65 1514.72,-324.1 1505.18,-328.7 1510.13,-333.65"/>
</g>
<!-- [root] azurerm_public_ip.public_ip (expand)&#45;&gt;[root] azurerm_resource_group.rg (expand) -->
<g id="edge16" class="edge">
<title>[root] azurerm_public_ip.public_ip (expand)&#45;&gt;[root] azurerm_resource_group.rg (expand)</title>
<path fill="none" stroke="black" d="M584.96,-287.91C587.73,-269.46 593.61,-239.57 604.83,-216 609.44,-206.32 615.98,-196.68 622.44,-188.33"/>
<polygon fill="black" stroke="black" points="625.24,-190.43 628.79,-180.45 619.79,-186.03 625.24,-190.43"/>
</g>
<!-- [root] provider[&quot;registry.terraform.io/hashicorp/azurerm&quot;] -->
<g id="node12" class="node">
<title>[root] provider[&quot;registry.terraform.io/hashicorp/azurerm&quot;]</title>
<polygon fill="none" stroke="black" points="274.83,-108 0.17,-90 274.83,-72 549.48,-90 274.83,-108"/>
<text text-anchor="middle" x="274.83" y="-86.3" font-family="Times,serif" font-size="14.00">provider[&quot;registry.terraform.io/hashicorp/azurerm&quot;]</text>
</g>
<!-- [root] azurerm_resource_group.rg (expand)&#45;&gt;[root] provider[&quot;registry.terraform.io/hashicorp/azurerm&quot;] -->
<g id="edge18" class="edge">
<title>[root] azurerm_resource_group.rg (expand)&#45;&gt;[root] provider[&quot;registry.terraform.io/hashicorp/azurerm&quot;]</title>
<path fill="none" stroke="black" d="M560.87,-145.12C498.06,-133.23 412.83,-117.11 351.77,-105.56"/>
<polygon fill="black" stroke="black" points="352.29,-102.09 341.81,-103.67 350.98,-108.97 352.29,-102.09"/>
</g>
<!-- [root] var.resource_information -->
<g id="node20" class="node">
<title>[root] var.resource_information</title>
<polygon fill="none" stroke="black" points="715.83,-108 567.83,-108 567.83,-72 721.83,-72 721.83,-102 715.83,-108"/>
<polyline fill="none" stroke="black" points="715.83,-108 715.83,-102 "/>
<polyline fill="none" stroke="black" points="721.83,-102 715.83,-102 "/>
<text text-anchor="middle" x="644.83" y="-86.3" font-family="Times,serif" font-size="14.00">var.resource_information</text>
</g>
<!-- [root] azurerm_resource_group.rg (expand)&#45;&gt;[root] var.resource_information -->
<g id="edge19" class="edge">
<title>[root] azurerm_resource_group.rg (expand)&#45;&gt;[root] var.resource_information</title>
<path fill="none" stroke="black" d="M644.83,-143.7C644.83,-135.98 644.83,-126.71 644.83,-118.11"/>
<polygon fill="black" stroke="black" points="648.33,-118.1 644.83,-108.1 641.33,-118.1 648.33,-118.1"/>
</g>
<!-- [root] local.required_tags (expand) -->
<g id="node26" class="node">
<title>[root] local.required_tags (expand)</title>
<ellipse fill="none" stroke="black" cx="873.83" cy="-90" rx="133.78" ry="18"/>
<text text-anchor="middle" x="873.83" y="-86.3" font-family="Times,serif" font-size="14.00">[root] local.required_tags (expand)</text>
</g>
<!-- [root] azurerm_resource_group.rg (expand)&#45;&gt;[root] local.required_tags (expand) -->
<g id="edge17" class="edge">
<title>[root] azurerm_resource_group.rg (expand)&#45;&gt;[root] local.required_tags (expand)</title>
<path fill="none" stroke="black" d="M700.55,-143.97C734.56,-133.57 778.05,-120.28 812.96,-109.61"/>
<polygon fill="black" stroke="black" points="814.02,-112.94 822.56,-106.67 811.97,-106.25 814.02,-112.94"/>
</g>
<!-- [root] azurerm_virtual_network.vnet (expand) -->
<g id="node9" class="node">
<title>[root] azurerm_virtual_network.vnet (expand)</title>
<polygon fill="none" stroke="black" points="795.83,-252 613.83,-252 613.83,-216 795.83,-216 795.83,-252"/>
<text text-anchor="middle" x="704.83" y="-230.3" font-family="Times,serif" font-size="14.00">azurerm_virtual_network.vnet</text>
</g>
<!-- [root] azurerm_subnet.subnet (expand)&#45;&gt;[root] azurerm_virtual_network.vnet (expand) -->
<g id="edge20" class="edge">
<title>[root] azurerm_subnet.subnet (expand)&#45;&gt;[root] azurerm_virtual_network.vnet (expand)</title>
<path fill="none" stroke="black" d="M818.89,-287.88C798.34,-278.35 772.58,-266.41 750.74,-256.28"/>
<polygon fill="black" stroke="black" points="752.19,-253.1 741.65,-252.07 749.25,-259.45 752.19,-253.1"/>
</g>
<!-- [root] var.subnets -->
<g id="node23" class="node">
<title>[root] var.subnets</title>
<polygon fill="none" stroke="black" points="888.33,-252 817.33,-252 817.33,-216 894.33,-216 894.33,-246 888.33,-252"/>
<polyline fill="none" stroke="black" points="888.33,-252 888.33,-246 "/>
<polyline fill="none" stroke="black" points="894.33,-246 888.33,-246 "/>
<text text-anchor="middle" x="855.83" y="-230.3" font-family="Times,serif" font-size="14.00">var.subnets</text>
</g>
<!-- [root] azurerm_subnet.subnet (expand)&#45;&gt;[root] var.subnets -->
<g id="edge21" class="edge">
<title>[root] azurerm_subnet.subnet (expand)&#45;&gt;[root] var.subnets</title>
<path fill="none" stroke="black" d="M855.83,-287.7C855.83,-279.98 855.83,-270.71 855.83,-262.11"/>
<polygon fill="black" stroke="black" points="859.33,-262.1 855.83,-252.1 852.33,-262.1 859.33,-262.1"/>
</g>
<!-- [root] azurerm_subnet_network_security_group_association.sec_group (expand) -->
<g id="node8" class="node">
<title>[root] azurerm_subnet_network_security_group_association.sec_group (expand)</title>
<polygon fill="none" stroke="black" points="1505.83,-468 1137.83,-468 1137.83,-432 1505.83,-432 1505.83,-468"/>
<text text-anchor="middle" x="1321.83" y="-446.3" font-family="Times,serif" font-size="14.00">azurerm_subnet_network_security_group_association.sec_group</text>
</g>
<!-- [root] azurerm_subnet_network_security_group_association.sec_group (expand)&#45;&gt;[root] azurerm_network_security_group.nsg (expand) -->
<g id="edge22" class="edge">
<title>[root] azurerm_subnet_network_security_group_association.sec_group (expand)&#45;&gt;[root] azurerm_network_security_group.nsg (expand)</title>
<path fill="none" stroke="black" d="M1356.08,-431.88C1374.89,-422.47 1398.41,-410.71 1418.49,-400.67"/>
<polygon fill="black" stroke="black" points="1420.07,-403.79 1427.45,-396.19 1416.94,-397.53 1420.07,-403.79"/>
</g>
<!-- [root] azurerm_subnet_network_security_group_association.sec_group (expand)&#45;&gt;[root] azurerm_subnet.subnet (expand) -->
<g id="edge23" class="edge">
<title>[root] azurerm_subnet_network_security_group_association.sec_group (expand)&#45;&gt;[root] azurerm_subnet.subnet (expand)</title>
<path fill="none" stroke="black" d="M1323.56,-431.74C1324.54,-411.41 1322.68,-378.1 1302.83,-360 1276.39,-335.9 1059.1,-319.16 937.49,-311.58"/>
<polygon fill="black" stroke="black" points="937.66,-308.09 927.47,-310.96 937.23,-315.07 937.66,-308.09"/>
</g>
<!-- [root] azurerm_virtual_network.vnet (expand)&#45;&gt;[root] azurerm_resource_group.rg (expand) -->
<g id="edge24" class="edge">
<title>[root] azurerm_virtual_network.vnet (expand)&#45;&gt;[root] azurerm_resource_group.rg (expand)</title>
<path fill="none" stroke="black" d="M690,-215.7C682.8,-207.3 674.03,-197.07 666.14,-187.86"/>
<polygon fill="black" stroke="black" points="668.65,-185.42 659.49,-180.1 663.34,-189.97 668.65,-185.42"/>
</g>
<!-- [root] provider[&quot;registry.terraform.io/hashicorp/http&quot;] -->
<g id="node13" class="node">
<title>[root] provider[&quot;registry.terraform.io/hashicorp/http&quot;]</title>
<polygon fill="none" stroke="black" points="1531.83,-252 1279.29,-234 1531.83,-216 1784.36,-234 1531.83,-252"/>
<text text-anchor="middle" x="1531.83" y="-230.3" font-family="Times,serif" font-size="14.00">provider[&quot;registry.terraform.io/hashicorp/http&quot;]</text>
</g>
<!-- [root] data.http.ip_address (expand)&#45;&gt;[root] provider[&quot;registry.terraform.io/hashicorp/http&quot;] -->
<g id="edge25" class="edge">
<title>[root] data.http.ip_address (expand)&#45;&gt;[root] provider[&quot;registry.terraform.io/hashicorp/http&quot;]</title>
<path fill="none" stroke="black" d="M1531.83,-287.7C1531.83,-279.98 1531.83,-270.71 1531.83,-262.11"/>
<polygon fill="black" stroke="black" points="1535.33,-262.1 1531.83,-252.1 1528.33,-262.1 1535.33,-262.1"/>
</g>
<!-- [root] output.public_ip_address -->
<g id="node11" class="node">
<title>[root] output.public_ip_address</title>
<polygon fill="none" stroke="black" points="335.33,-540 188.33,-540 188.33,-504 341.33,-504 341.33,-534 335.33,-540"/>
<polyline fill="none" stroke="black" points="335.33,-540 335.33,-534 "/>
<polyline fill="none" stroke="black" points="341.33,-534 335.33,-534 "/>
<text text-anchor="middle" x="264.83" y="-518.3" font-family="Times,serif" font-size="14.00">output.public_ip_address</text>
</g>
<!-- [root] output.public_ip_address&#45;&gt;[root] azurerm_public_ip.public_ip (expand) -->
<g id="edge27" class="edge">
<title>[root] output.public_ip_address&#45;&gt;[root] azurerm_public_ip.public_ip (expand)</title>
<path fill="none" stroke="black" d="M246.78,-503.83C215.63,-472.16 158.64,-403.79 196.83,-360 233.56,-317.88 383.71,-308.05 485.54,-306.38"/>
<polygon fill="black" stroke="black" points="485.6,-309.88 495.55,-306.24 485.5,-302.88 485.6,-309.88"/>
</g>
<!-- [root] var.labels -->
<g id="node16" class="node">
<title>[root] var.labels</title>
<polygon fill="none" stroke="black" points="901.83,-36 839.83,-36 839.83,0 907.83,0 907.83,-30 901.83,-36"/>
<polyline fill="none" stroke="black" points="901.83,-36 901.83,-30 "/>
<polyline fill="none" stroke="black" points="907.83,-30 901.83,-30 "/>
<text text-anchor="middle" x="873.83" y="-14.3" font-family="Times,serif" font-size="14.00">var.labels</text>
</g>
<!-- [root] local.required_tags (expand)&#45;&gt;[root] var.labels -->
<g id="edge26" class="edge">
<title>[root] local.required_tags (expand)&#45;&gt;[root] var.labels</title>
<path fill="none" stroke="black" d="M873.83,-71.7C873.83,-63.98 873.83,-54.71 873.83,-46.11"/>
<polygon fill="black" stroke="black" points="877.33,-46.1 873.83,-36.1 870.33,-46.1 877.33,-46.1"/>
</g>
<!-- [root] provider[&quot;registry.terraform.io/hashicorp/azurerm&quot;] (close) -->
<g id="node27" class="node">
<title>[root] provider[&quot;registry.terraform.io/hashicorp/azurerm&quot;] (close)</title>
<ellipse fill="none" stroke="black" cx="726.83" cy="-522" rx="243.16" ry="18"/>
<text text-anchor="middle" x="726.83" y="-518.3" font-family="Times,serif" font-size="14.00">[root] provider[&quot;registry.terraform.io/hashicorp/azurerm&quot;] (close)</text>
</g>
<!-- [root] provider[&quot;registry.terraform.io/hashicorp/azurerm&quot;] (close)&#45;&gt;[root] azurerm_availability_set.availability&#45;set (expand) -->
<g id="edge28" class="edge">
<title>[root] provider[&quot;registry.terraform.io/hashicorp/azurerm&quot;] (close)&#45;&gt;[root] azurerm_availability_set.availability&#45;set (expand)</title>
<path fill="none" stroke="black" d="M648.6,-504.94C598.07,-494.57 532.08,-481.02 478.87,-470.1"/>
<polygon fill="black" stroke="black" points="479.25,-466.61 468.75,-468.02 477.84,-473.46 479.25,-466.61"/>
</g>
<!-- [root] provider[&quot;registry.terraform.io/hashicorp/azurerm&quot;] (close)&#45;&gt;[root] azurerm_linux_virtual_machine.vm (expand) -->
<g id="edge29" class="edge">
<title>[root] provider[&quot;registry.terraform.io/hashicorp/azurerm&quot;] (close)&#45;&gt;[root] azurerm_linux_virtual_machine.vm (expand)</title>
<path fill="none" stroke="black" d="M726.83,-503.7C726.83,-495.98 726.83,-486.71 726.83,-478.11"/>
<polygon fill="black" stroke="black" points="730.33,-478.1 726.83,-468.1 723.33,-478.1 730.33,-478.1"/>
</g>
<!-- [root] provider[&quot;registry.terraform.io/hashicorp/azurerm&quot;] (close)&#45;&gt;[root] azurerm_subnet_network_security_group_association.sec_group (expand) -->
<g id="edge30" class="edge">
<title>[root] provider[&quot;registry.terraform.io/hashicorp/azurerm&quot;] (close)&#45;&gt;[root] azurerm_subnet_network_security_group_association.sec_group (expand)</title>
<path fill="none" stroke="black" d="M850.47,-506.45C942.4,-495.64 1068.44,-480.81 1167.05,-469.21"/>
<polygon fill="black" stroke="black" points="1167.59,-472.67 1177.11,-468.03 1166.77,-465.72 1167.59,-472.67"/>
</g>
<!-- [root] provider[&quot;registry.terraform.io/hashicorp/http&quot;] (close) -->
<g id="node28" class="node">
<title>[root] provider[&quot;registry.terraform.io/hashicorp/http&quot;] (close)</title>
<ellipse fill="none" stroke="black" cx="1408.83" cy="-522" rx="227.46" ry="18"/>
<text text-anchor="middle" x="1408.83" y="-518.3" font-family="Times,serif" font-size="14.00">[root] provider[&quot;registry.terraform.io/hashicorp/http&quot;] (close)</text>
</g>
<!-- [root] provider[&quot;registry.terraform.io/hashicorp/http&quot;] (close)&#45;&gt;[root] data.http.ip_address (expand) -->
<g id="edge31" class="edge">
<title>[root] provider[&quot;registry.terraform.io/hashicorp/http&quot;] (close)&#45;&gt;[root] data.http.ip_address (expand)</title>
<path fill="none" stroke="black" d="M1455.84,-504.26C1499.54,-485.65 1561.05,-450.78 1582.83,-396 1588.74,-381.13 1588.81,-374.84 1582.83,-360 1578.48,-349.21 1570.77,-339.39 1562.63,-331.21"/>
<polygon fill="black" stroke="black" points="1564.82,-328.46 1555.13,-324.18 1560.04,-333.57 1564.82,-328.46"/>
</g>
<!-- [root] root -->
<g id="node29" class="node">
<title>[root] root</title>
<ellipse fill="none" stroke="black" cx="726.83" cy="-594" rx="47.39" ry="18"/>
<text text-anchor="middle" x="726.83" y="-590.3" font-family="Times,serif" font-size="14.00">[root] root</text>
</g>
<!-- [root] root&#45;&gt;[root] output.public_ip_address -->
<g id="edge32" class="edge">
<title>[root] root&#45;&gt;[root] output.public_ip_address</title>
<path fill="none" stroke="black" d="M683.36,-586.41C607.68,-574.95 450.36,-551.11 351.62,-536.15"/>
<polygon fill="black" stroke="black" points="352.07,-532.68 341.66,-534.64 351.02,-539.6 352.07,-532.68"/>
</g>
<!-- [root] root&#45;&gt;[root] provider[&quot;registry.terraform.io/hashicorp/azurerm&quot;] (close) -->
<g id="edge33" class="edge">
<title>[root] root&#45;&gt;[root] provider[&quot;registry.terraform.io/hashicorp/azurerm&quot;] (close)</title>
<path fill="none" stroke="black" d="M726.83,-575.7C726.83,-567.98 726.83,-558.71 726.83,-550.11"/>
<polygon fill="black" stroke="black" points="730.33,-550.1 726.83,-540.1 723.33,-550.1 730.33,-550.1"/>
</g>
<!-- [root] root&#45;&gt;[root] provider[&quot;registry.terraform.io/hashicorp/http&quot;] (close) -->
<g id="edge34" class="edge">
<title>[root] root&#45;&gt;[root] provider[&quot;registry.terraform.io/hashicorp/http&quot;] (close)</title>
<path fill="none" stroke="black" d="M772.1,-588.35C871.15,-578.19 1110.63,-553.61 1266.01,-537.66"/>
<polygon fill="black" stroke="black" points="1266.53,-541.12 1276.12,-536.62 1265.82,-534.16 1266.53,-541.12"/>
</g>
</g>
</svg>
