<?xml version="1.0" encoding="UTF-8" standalone="no"?>
<!DOCTYPE svg PUBLIC "-//W3C//DTD SVG 1.1//EN"
 "http://www.w3.org/Graphics/SVG/1.1/DTD/svg11.dtd">
<!-- Generated by graphviz version 2.50.0 (20211204.2007)
 -->
<!-- Pages: 1 -->
<svg width="2103pt" height="692pt"
 viewBox="0.00 0.00 2102.60 692.00" xmlns="http://www.w3.org/2000/svg" xmlns:xlink="http://www.w3.org/1999/xlink">
<g id="graph0" class="graph" transform="scale(1 1) rotate(0) translate(4 688)">
<polygon fill="white" stroke="transparent" points="-4,4 -4,-688 2098.6,-688 2098.6,4 -4,4"/>
<!-- [root] azurerm_linux_virtual_machine.vm (expand) -->
<g id="node1" class="node">
<title>[root] azurerm_linux_virtual_machine.vm (expand)</title>
<polygon fill="none" stroke="black" points="1221.33,-468 1008.33,-468 1008.33,-432 1221.33,-432 1221.33,-468"/>
<text text-anchor="middle" x="1114.83" y="-446.3" font-family="Times,serif" font-size="14.00">azurerm_linux_virtual_machine.vm</text>
</g>
<!-- [root] azurerm_network_interface.network_interface (expand) -->
<g id="node3" class="node">
<title>[root] azurerm_network_interface.network_interface (expand)</title>
<polygon fill="none" stroke="black" points="917.33,-396 648.33,-396 648.33,-360 917.33,-360 917.33,-396"/>
<text text-anchor="middle" x="782.83" y="-374.3" font-family="Times,serif" font-size="14.00">azurerm_network_interface.network_interface</text>
</g>
<!-- [root] azurerm_linux_virtual_machine.vm (expand)&#45;&gt;[root] azurerm_network_interface.network_interface (expand) -->
<g id="edge1" class="edge">
<title>[root] azurerm_linux_virtual_machine.vm (expand)&#45;&gt;[root] azurerm_network_interface.network_interface (expand)</title>
<path fill="none" stroke="black" d="M1034.04,-431.97C985.54,-421.74 923.74,-408.71 873.57,-398.13"/>
<polygon fill="black" stroke="black" points="874.2,-394.69 863.69,-396.05 872.76,-401.54 874.2,-394.69"/>
</g>
<!-- [root] var.diskSize -->
<g id="node17" class="node">
<title>[root] var.diskSize</title>
<polygon fill="none" stroke="black" points="1119.33,-396 1042.33,-396 1042.33,-360 1125.33,-360 1125.33,-390 1119.33,-396"/>
<polyline fill="none" stroke="black" points="1119.33,-396 1119.33,-390 "/>
<polyline fill="none" stroke="black" points="1125.33,-390 1119.33,-390 "/>
<text text-anchor="middle" x="1083.83" y="-374.3" font-family="Times,serif" font-size="14.00">var.diskSize</text>
</g>
<!-- [root] azurerm_linux_virtual_machine.vm (expand)&#45;&gt;[root] var.diskSize -->
<g id="edge2" class="edge">
<title>[root] azurerm_linux_virtual_machine.vm (expand)&#45;&gt;[root] var.diskSize</title>
<path fill="none" stroke="black" d="M1107.17,-431.7C1103.64,-423.73 1099.37,-414.1 1095.46,-405.26"/>
<polygon fill="black" stroke="black" points="1098.65,-403.83 1091.4,-396.1 1092.25,-406.67 1098.65,-403.83"/>
</g>
<!-- [root] var.offer -->
<g id="node20" class="node">
<title>[root] var.offer</title>
<polygon fill="none" stroke="black" points="1200.33,-396 1143.33,-396 1143.33,-360 1206.33,-360 1206.33,-390 1200.33,-396"/>
<polyline fill="none" stroke="black" points="1200.33,-396 1200.33,-390 "/>
<polyline fill="none" stroke="black" points="1206.33,-390 1200.33,-390 "/>
<text text-anchor="middle" x="1174.83" y="-374.3" font-family="Times,serif" font-size="14.00">var.offer</text>
</g>
<!-- [root] azurerm_linux_virtual_machine.vm (expand)&#45;&gt;[root] var.offer -->
<g id="edge3" class="edge">
<title>[root] azurerm_linux_virtual_machine.vm (expand)&#45;&gt;[root] var.offer</title>
<path fill="none" stroke="black" d="M1129.66,-431.7C1136.85,-423.3 1145.62,-413.07 1153.52,-403.86"/>
<polygon fill="black" stroke="black" points="1156.32,-405.97 1160.17,-396.1 1151,-401.42 1156.32,-405.97"/>
</g>
<!-- [root] var.osVersion -->
<g id="node21" class="node">
<title>[root] var.osVersion</title>
<polygon fill="none" stroke="black" points="1308.83,-396 1224.83,-396 1224.83,-360 1314.83,-360 1314.83,-390 1308.83,-396"/>
<polyline fill="none" stroke="black" points="1308.83,-396 1308.83,-390 "/>
<polyline fill="none" stroke="black" points="1314.83,-390 1308.83,-390 "/>
<text text-anchor="middle" x="1269.83" y="-374.3" font-family="Times,serif" font-size="14.00">var.osVersion</text>
</g>
<!-- [root] azurerm_linux_virtual_machine.vm (expand)&#45;&gt;[root] var.osVersion -->
<g id="edge4" class="edge">
<title>[root] azurerm_linux_virtual_machine.vm (expand)&#45;&gt;[root] var.osVersion</title>
<path fill="none" stroke="black" d="M1152.75,-431.88C1173.84,-422.35 1200.28,-410.41 1222.7,-400.28"/>
<polygon fill="black" stroke="black" points="1224.36,-403.37 1232.03,-396.07 1221.48,-396.99 1224.36,-403.37"/>
</g>
<!-- [root] var.publisher -->
<g id="node22" class="node">
<title>[root] var.publisher</title>
<polygon fill="none" stroke="black" points="1414.33,-396 1333.33,-396 1333.33,-360 1420.33,-360 1420.33,-390 1414.33,-396"/>
<polyline fill="none" stroke="black" points="1414.33,-396 1414.33,-390 "/>
<polyline fill="none" stroke="black" points="1420.33,-390 1414.33,-390 "/>
<text text-anchor="middle" x="1376.83" y="-374.3" font-family="Times,serif" font-size="14.00">var.publisher</text>
</g>
<!-- [root] azurerm_linux_virtual_machine.vm (expand)&#45;&gt;[root] var.publisher -->
<g id="edge5" class="edge">
<title>[root] azurerm_linux_virtual_machine.vm (expand)&#45;&gt;[root] var.publisher</title>
<path fill="none" stroke="black" d="M1186.7,-431.94C1224.7,-422.65 1272.31,-410.57 1323.32,-396.06"/>
<polygon fill="black" stroke="black" points="1324.57,-399.34 1333.22,-393.22 1322.64,-392.61 1324.57,-399.34"/>
</g>
<!-- [root] var.sku -->
<g id="node24" class="node">
<title>[root] var.sku</title>
<polygon fill="none" stroke="black" points="1488.83,-396 1438.83,-396 1438.83,-360 1494.83,-360 1494.83,-390 1488.83,-396"/>
<polyline fill="none" stroke="black" points="1488.83,-396 1488.83,-390 "/>
<polyline fill="none" stroke="black" points="1494.83,-390 1488.83,-390 "/>
<text text-anchor="middle" x="1466.83" y="-374.3" font-family="Times,serif" font-size="14.00">var.sku</text>
</g>
<!-- [root] azurerm_linux_virtual_machine.vm (expand)&#45;&gt;[root] var.sku -->
<g id="edge6" class="edge">
<title>[root] azurerm_linux_virtual_machine.vm (expand)&#45;&gt;[root] var.sku</title>
<path fill="none" stroke="black" d="M1221.45,-438.17C1280.58,-430.48 1355.25,-418.02 1428.57,-395.97"/>
<polygon fill="black" stroke="black" points="1429.9,-399.23 1438.44,-392.95 1427.85,-392.53 1429.9,-399.23"/>
</g>
<!-- [root] var.storageAccType -->
<g id="node25" class="node">
<title>[root] var.storageAccType</title>
<polygon fill="none" stroke="black" points="624.33,-396 505.33,-396 505.33,-360 630.33,-360 630.33,-390 624.33,-396"/>
<polyline fill="none" stroke="black" points="624.33,-396 624.33,-390 "/>
<polyline fill="none" stroke="black" points="630.33,-390 624.33,-390 "/>
<text text-anchor="middle" x="567.83" y="-374.3" font-family="Times,serif" font-size="14.00">var.storageAccType</text>
</g>
<!-- [root] azurerm_linux_virtual_machine.vm (expand)&#45;&gt;[root] var.storageAccType -->
<g id="edge7" class="edge">
<title>[root] azurerm_linux_virtual_machine.vm (expand)&#45;&gt;[root] var.storageAccType</title>
<path fill="none" stroke="black" d="M1007.95,-440.92C913.49,-432.89 771.88,-418.71 640.32,-396.15"/>
<polygon fill="black" stroke="black" points="640.91,-392.7 630.46,-394.44 639.71,-399.6 640.91,-392.7"/>
</g>
<!-- [root] var.username -->
<g id="node27" class="node">
<title>[root] var.username</title>
<polygon fill="none" stroke="black" points="1018.33,-396 935.33,-396 935.33,-360 1024.33,-360 1024.33,-390 1018.33,-396"/>
<polyline fill="none" stroke="black" points="1018.33,-396 1018.33,-390 "/>
<polyline fill="none" stroke="black" points="1024.33,-390 1018.33,-390 "/>
<text text-anchor="middle" x="979.83" y="-374.3" font-family="Times,serif" font-size="14.00">var.username</text>
</g>
<!-- [root] azurerm_linux_virtual_machine.vm (expand)&#45;&gt;[root] var.username -->
<g id="edge8" class="edge">
<title>[root] azurerm_linux_virtual_machine.vm (expand)&#45;&gt;[root] var.username</title>
<path fill="none" stroke="black" d="M1081.8,-431.88C1063.74,-422.51 1041.18,-410.81 1021.88,-400.8"/>
<polygon fill="black" stroke="black" points="1023.47,-397.69 1012.98,-396.19 1020.25,-403.9 1023.47,-397.69"/>
</g>
<!-- [root] azurerm_managed_disk.managed_disk (expand) -->
<g id="node2" class="node">
<title>[root] azurerm_managed_disk.managed_disk (expand)</title>
<polygon fill="none" stroke="black" points="591.83,-468 361.83,-468 361.83,-432 591.83,-432 591.83,-468"/>
<text text-anchor="middle" x="476.83" y="-446.3" font-family="Times,serif" font-size="14.00">azurerm_managed_disk.managed_disk</text>
</g>
<!-- [root] azurerm_resource_group.rg (expand) -->
<g id="node6" class="node">
<title>[root] azurerm_resource_group.rg (expand)</title>
<polygon fill="none" stroke="black" points="750.33,-180 583.33,-180 583.33,-144 750.33,-144 750.33,-180"/>
<text text-anchor="middle" x="666.83" y="-158.3" font-family="Times,serif" font-size="14.00">azurerm_resource_group.rg</text>
</g>
<!-- [root] azurerm_managed_disk.managed_disk (expand)&#45;&gt;[root] azurerm_resource_group.rg (expand) -->
<g id="edge9" class="edge">
<title>[root] azurerm_managed_disk.managed_disk (expand)&#45;&gt;[root] azurerm_resource_group.rg (expand)</title>
<path fill="none" stroke="black" d="M477.6,-431.94C479.08,-413.26 483.38,-382.9 495.83,-360 506.63,-340.12 516.54,-340.69 531.83,-324 574.35,-277.58 620.89,-220.58 646.71,-188.36"/>
<polygon fill="black" stroke="black" points="649.61,-190.34 653.12,-180.34 644.14,-185.97 649.61,-190.34"/>
</g>
<!-- [root] azurerm_managed_disk.managed_disk (expand)&#45;&gt;[root] var.storageAccType -->
<g id="edge10" class="edge">
<title>[root] azurerm_managed_disk.managed_disk (expand)&#45;&gt;[root] var.storageAccType</title>
<path fill="none" stroke="black" d="M499.32,-431.7C510.78,-422.88 524.89,-412.03 537.31,-402.47"/>
<polygon fill="black" stroke="black" points="539.8,-404.98 545.59,-396.1 535.53,-399.43 539.8,-404.98"/>
</g>
<!-- [root] var.storageSize -->
<g id="node26" class="node">
<title>[root] var.storageSize</title>
<polygon fill="none" stroke="black" points="442.33,-396 349.33,-396 349.33,-360 448.33,-360 448.33,-390 442.33,-396"/>
<polyline fill="none" stroke="black" points="442.33,-396 442.33,-390 "/>
<polyline fill="none" stroke="black" points="448.33,-390 442.33,-390 "/>
<text text-anchor="middle" x="398.83" y="-374.3" font-family="Times,serif" font-size="14.00">var.storageSize</text>
</g>
<!-- [root] azurerm_managed_disk.managed_disk (expand)&#45;&gt;[root] var.storageSize -->
<g id="edge11" class="edge">
<title>[root] azurerm_managed_disk.managed_disk (expand)&#45;&gt;[root] var.storageSize</title>
<path fill="none" stroke="black" d="M457.55,-431.7C447.91,-423.05 436.1,-412.45 425.6,-403.03"/>
<polygon fill="black" stroke="black" points="427.67,-400.18 417.89,-396.1 422.99,-405.39 427.67,-400.18"/>
</g>
<!-- [root] var.vmSize -->
<g id="node28" class="node">
<title>[root] var.vmSize</title>
<polygon fill="none" stroke="black" points="411.83,-252 339.83,-252 339.83,-216 417.83,-216 417.83,-246 411.83,-252"/>
<polyline fill="none" stroke="black" points="411.83,-252 411.83,-246 "/>
<polyline fill="none" stroke="black" points="417.83,-246 411.83,-246 "/>
<text text-anchor="middle" x="378.83" y="-230.3" font-family="Times,serif" font-size="14.00">var.vmSize</text>
</g>
<!-- [root] azurerm_managed_disk.managed_disk (expand)&#45;&gt;[root] var.vmSize -->
<g id="edge12" class="edge">
<title>[root] azurerm_managed_disk.managed_disk (expand)&#45;&gt;[root] var.vmSize</title>
<path fill="none" stroke="black" d="M387.25,-431.86C368.62,-424.03 351.22,-412.62 339.83,-396 312.69,-356.41 324.86,-333.61 339.83,-288 343.14,-277.91 349.19,-268.15 355.56,-259.82"/>
<polygon fill="black" stroke="black" points="358.33,-261.97 361.94,-252.01 352.9,-257.54 358.33,-261.97"/>
</g>
<!-- [root] azurerm_public_ip.public_ip (expand) -->
<g id="node5" class="node">
<title>[root] azurerm_public_ip.public_ip (expand)</title>
<polygon fill="none" stroke="black" points="522.83,-324 348.83,-324 348.83,-288 522.83,-288 522.83,-324"/>
<text text-anchor="middle" x="435.83" y="-302.3" font-family="Times,serif" font-size="14.00">azurerm_public_ip.public_ip</text>
</g>
<!-- [root] azurerm_network_interface.network_interface (expand)&#45;&gt;[root] azurerm_public_ip.public_ip (expand) -->
<g id="edge13" class="edge">
<title>[root] azurerm_network_interface.network_interface (expand)&#45;&gt;[root] azurerm_public_ip.public_ip (expand)</title>
<path fill="none" stroke="black" d="M698.39,-359.97C647.59,-349.72 582.83,-336.66 530.34,-326.07"/>
<polygon fill="black" stroke="black" points="530.84,-322.6 520.35,-324.05 529.46,-329.46 530.84,-322.6"/>
</g>
<!-- [root] azurerm_subnet.subnet (expand) -->
<g id="node7" class="node">
<title>[root] azurerm_subnet.subnet (expand)</title>
<polygon fill="none" stroke="black" points="918.33,-324 775.33,-324 775.33,-288 918.33,-288 918.33,-324"/>
<text text-anchor="middle" x="846.83" y="-302.3" font-family="Times,serif" font-size="14.00">azurerm_subnet.subnet</text>
</g>
<!-- [root] azurerm_network_interface.network_interface (expand)&#45;&gt;[root] azurerm_subnet.subnet (expand) -->
<g id="edge14" class="edge">
<title>[root] azurerm_network_interface.network_interface (expand)&#45;&gt;[root] azurerm_subnet.subnet (expand)</title>
<path fill="none" stroke="black" d="M798.65,-359.7C806.4,-351.22 815.87,-340.86 824.35,-331.58"/>
<polygon fill="black" stroke="black" points="827.03,-333.85 831.19,-324.1 821.86,-329.12 827.03,-333.85"/>
</g>
<!-- [root] var.acc_net -->
<g id="node15" class="node">
<title>[root] var.acc_net</title>
<polygon fill="none" stroke="black" points="750.83,-324 678.83,-324 678.83,-288 756.83,-288 756.83,-318 750.83,-324"/>
<polyline fill="none" stroke="black" points="750.83,-324 750.83,-318 "/>
<polyline fill="none" stroke="black" points="756.83,-318 750.83,-318 "/>
<text text-anchor="middle" x="717.83" y="-302.3" font-family="Times,serif" font-size="14.00">var.acc_net</text>
</g>
<!-- [root] azurerm_network_interface.network_interface (expand)&#45;&gt;[root] var.acc_net -->
<g id="edge15" class="edge">
<title>[root] azurerm_network_interface.network_interface (expand)&#45;&gt;[root] var.acc_net</title>
<path fill="none" stroke="black" d="M766.76,-359.7C758.89,-351.22 749.27,-340.86 740.65,-331.58"/>
<polygon fill="black" stroke="black" points="743.08,-329.05 733.71,-324.1 737.95,-333.81 743.08,-329.05"/>
</g>
<!-- [root] azurerm_network_security_group.nsg (expand) -->
<g id="node4" class="node">
<title>[root] azurerm_network_security_group.nsg (expand)</title>
<polygon fill="none" stroke="black" points="1774.33,-468 1551.33,-468 1551.33,-432 1774.33,-432 1774.33,-468"/>
<text text-anchor="middle" x="1662.83" y="-446.3" font-family="Times,serif" font-size="14.00">azurerm_network_security_group.nsg</text>
</g>
<!-- [root] azurerm_network_security_group.nsg (expand)&#45;&gt;[root] azurerm_resource_group.rg (expand) -->
<g id="edge16" class="edge">
<title>[root] azurerm_network_security_group.nsg (expand)&#45;&gt;[root] azurerm_resource_group.rg (expand)</title>
<path fill="none" stroke="black" d="M1642.22,-431.97C1616.84,-411.85 1571.71,-378.76 1527.83,-360 1262.65,-246.67 922.43,-193.53 760.53,-173.31"/>
<polygon fill="black" stroke="black" points="760.95,-169.84 750.6,-172.09 760.09,-176.79 760.95,-169.84"/>
</g>
<!-- [root] data.http.ip_address (expand) -->
<g id="node11" class="node">
<title>[root] data.http.ip_address (expand)</title>
<polygon fill="none" stroke="black" points="1865.33,-396 1740.33,-396 1740.33,-360 1865.33,-360 1865.33,-396"/>
<text text-anchor="middle" x="1802.83" y="-374.3" font-family="Times,serif" font-size="14.00">data.http.ip_address</text>
</g>
<!-- [root] azurerm_network_security_group.nsg (expand)&#45;&gt;[root] data.http.ip_address (expand) -->
<g id="edge17" class="edge">
<title>[root] azurerm_network_security_group.nsg (expand)&#45;&gt;[root] data.http.ip_address (expand)</title>
<path fill="none" stroke="black" d="M1697.08,-431.88C1715.89,-422.47 1739.41,-410.71 1759.49,-400.67"/>
<polygon fill="black" stroke="black" points="1761.07,-403.79 1768.45,-396.19 1757.94,-397.53 1761.07,-403.79"/>
</g>
<!-- [root] azurerm_public_ip.public_ip (expand)&#45;&gt;[root] azurerm_resource_group.rg (expand) -->
<g id="edge18" class="edge">
<title>[root] azurerm_public_ip.public_ip (expand)&#45;&gt;[root] azurerm_resource_group.rg (expand)</title>
<path fill="none" stroke="black" d="M451.93,-287.66C470.78,-268.17 503.65,-236.56 536.83,-216 557.58,-203.14 582,-192.23 604.04,-183.71"/>
<polygon fill="black" stroke="black" points="605.52,-186.89 613.64,-180.09 603.05,-180.34 605.52,-186.89"/>
</g>
<!-- [root] azurerm_public_ip.public_ip (expand)&#45;&gt;[root] var.vmSize -->
<g id="edge19" class="edge">
<title>[root] azurerm_public_ip.public_ip (expand)&#45;&gt;[root] var.vmSize</title>
<path fill="none" stroke="black" d="M421.74,-287.7C414.9,-279.3 406.57,-269.07 399.07,-259.86"/>
<polygon fill="black" stroke="black" points="401.78,-257.65 392.76,-252.1 396.36,-262.07 401.78,-257.65"/>
</g>
<!-- [root] provider[&quot;registry.terraform.io/hashicorp/azurerm&quot;] -->
<g id="node13" class="node">
<title>[root] provider[&quot;registry.terraform.io/hashicorp/azurerm&quot;]</title>
<polygon fill="none" stroke="black" points="274.83,-108 0.17,-90 274.83,-72 549.48,-90 274.83,-108"/>
<text text-anchor="middle" x="274.83" y="-86.3" font-family="Times,serif" font-size="14.00">provider[&quot;registry.terraform.io/hashicorp/azurerm&quot;]</text>
</g>
<!-- [root] azurerm_resource_group.rg (expand)&#45;&gt;[root] provider[&quot;registry.terraform.io/hashicorp/azurerm&quot;] -->
<g id="edge21" class="edge">
<title>[root] azurerm_resource_group.rg (expand)&#45;&gt;[root] provider[&quot;registry.terraform.io/hashicorp/azurerm&quot;]</title>
<path fill="none" stroke="black" d="M583.21,-146.07C515.63,-134 421.12,-117.12 354.59,-105.24"/>
<polygon fill="black" stroke="black" points="355.03,-101.77 344.57,-103.45 353.8,-108.66 355.03,-101.77"/>
</g>
<!-- [root] var.location -->
<g id="node19" class="node">
<title>[root] var.location</title>
<polygon fill="none" stroke="black" points="641.83,-108 567.83,-108 567.83,-72 647.83,-72 647.83,-102 641.83,-108"/>
<polyline fill="none" stroke="black" points="641.83,-108 641.83,-102 "/>
<polyline fill="none" stroke="black" points="647.83,-102 641.83,-102 "/>
<text text-anchor="middle" x="607.83" y="-86.3" font-family="Times,serif" font-size="14.00">var.location</text>
</g>
<!-- [root] azurerm_resource_group.rg (expand)&#45;&gt;[root] var.location -->
<g id="edge22" class="edge">
<title>[root] azurerm_resource_group.rg (expand)&#45;&gt;[root] var.location</title>
<path fill="none" stroke="black" d="M652.24,-143.7C645.17,-135.3 636.54,-125.07 628.78,-115.86"/>
<polygon fill="black" stroke="black" points="631.37,-113.49 622.24,-108.1 626.01,-118.01 631.37,-113.49"/>
</g>
<!-- [root] var.resource_name -->
<g id="node23" class="node">
<title>[root] var.resource_name</title>
<polygon fill="none" stroke="black" points="779.33,-108 666.33,-108 666.33,-72 785.33,-72 785.33,-102 779.33,-108"/>
<polyline fill="none" stroke="black" points="779.33,-108 779.33,-102 "/>
<polyline fill="none" stroke="black" points="785.33,-102 779.33,-102 "/>
<text text-anchor="middle" x="725.83" y="-86.3" font-family="Times,serif" font-size="14.00">var.resource_name</text>
</g>
<!-- [root] azurerm_resource_group.rg (expand)&#45;&gt;[root] var.resource_name -->
<g id="edge23" class="edge">
<title>[root] azurerm_resource_group.rg (expand)&#45;&gt;[root] var.resource_name</title>
<path fill="none" stroke="black" d="M681.41,-143.7C688.49,-135.3 697.11,-125.07 704.87,-115.86"/>
<polygon fill="black" stroke="black" points="707.64,-118.01 711.41,-108.1 702.29,-113.49 707.64,-118.01"/>
</g>
<!-- [root] local.required_tags (expand) -->
<g id="node29" class="node">
<title>[root] local.required_tags (expand)</title>
<ellipse fill="none" stroke="black" cx="936.83" cy="-90" rx="133.78" ry="18"/>
<text text-anchor="middle" x="936.83" y="-86.3" font-family="Times,serif" font-size="14.00">[root] local.required_tags (expand)</text>
</g>
<!-- [root] azurerm_resource_group.rg (expand)&#45;&gt;[root] local.required_tags (expand) -->
<g id="edge20" class="edge">
<title>[root] azurerm_resource_group.rg (expand)&#45;&gt;[root] local.required_tags (expand)</title>
<path fill="none" stroke="black" d="M732.53,-143.97C773.72,-133.29 826.71,-119.55 868.4,-108.74"/>
<polygon fill="black" stroke="black" points="869.4,-112.1 878.2,-106.2 867.64,-105.32 869.4,-112.1"/>
</g>
<!-- [root] azurerm_virtual_network.vnet (expand) -->
<g id="node10" class="node">
<title>[root] azurerm_virtual_network.vnet (expand)</title>
<polygon fill="none" stroke="black" points="881.83,-252 699.83,-252 699.83,-216 881.83,-216 881.83,-252"/>
<text text-anchor="middle" x="790.83" y="-230.3" font-family="Times,serif" font-size="14.00">azurerm_virtual_network.vnet</text>
</g>
<!-- [root] azurerm_subnet.subnet (expand)&#45;&gt;[root] azurerm_virtual_network.vnet (expand) -->
<g id="edge24" class="edge">
<title>[root] azurerm_subnet.subnet (expand)&#45;&gt;[root] azurerm_virtual_network.vnet (expand)</title>
<path fill="none" stroke="black" d="M832.99,-287.7C826.34,-279.39 818.25,-269.28 810.94,-260.14"/>
<polygon fill="black" stroke="black" points="813.49,-257.73 804.51,-252.1 808.03,-262.1 813.49,-257.73"/>
</g>
<!-- [root] azurerm_subnet_network_security_group_association.sec_group (expand) -->
<g id="node8" class="node">
<title>[root] azurerm_subnet_network_security_group_association.sec_group (expand)</title>
<polygon fill="none" stroke="black" points="1706.83,-540 1338.83,-540 1338.83,-504 1706.83,-504 1706.83,-540"/>
<text text-anchor="middle" x="1522.83" y="-518.3" font-family="Times,serif" font-size="14.00">azurerm_subnet_network_security_group_association.sec_group</text>
</g>
<!-- [root] azurerm_subnet_network_security_group_association.sec_group (expand)&#45;&gt;[root] azurerm_network_security_group.nsg (expand) -->
<g id="edge25" class="edge">
<title>[root] azurerm_subnet_network_security_group_association.sec_group (expand)&#45;&gt;[root] azurerm_network_security_group.nsg (expand)</title>
<path fill="none" stroke="black" d="M1557.08,-503.88C1575.89,-494.47 1599.41,-482.71 1619.49,-472.67"/>
<polygon fill="black" stroke="black" points="1621.07,-475.79 1628.45,-468.19 1617.94,-469.53 1621.07,-475.79"/>
</g>
<!-- [root] azurerm_subnet_network_security_group_association.sec_group (expand)&#45;&gt;[root] azurerm_subnet.subnet (expand) -->
<g id="edge26" class="edge">
<title>[root] azurerm_subnet_network_security_group_association.sec_group (expand)&#45;&gt;[root] azurerm_subnet.subnet (expand)</title>
<path fill="none" stroke="black" d="M1526.94,-503.91C1533.78,-470.81 1543.14,-397.89 1503.83,-360 1463.22,-320.87 1095.6,-310.58 928.66,-307.91"/>
<polygon fill="black" stroke="black" points="928.49,-304.41 918.44,-307.75 928.38,-311.41 928.49,-304.41"/>
</g>
<!-- [root] azurerm_virtual_machine_data_disk_attachment.disk_attach (expand) -->
<g id="node9" class="node">
<title>[root] azurerm_virtual_machine_data_disk_attachment.disk_attach (expand)</title>
<polygon fill="none" stroke="black" points="1288.33,-540 941.33,-540 941.33,-504 1288.33,-504 1288.33,-540"/>
<text text-anchor="middle" x="1114.83" y="-518.3" font-family="Times,serif" font-size="14.00">azurerm_virtual_machine_data_disk_attachment.disk_attach</text>
</g>
<!-- [root] azurerm_virtual_machine_data_disk_attachment.disk_attach (expand)&#45;&gt;[root] azurerm_linux_virtual_machine.vm (expand) -->
<g id="edge27" class="edge">
<title>[root] azurerm_virtual_machine_data_disk_attachment.disk_attach (expand)&#45;&gt;[root] azurerm_linux_virtual_machine.vm (expand)</title>
<path fill="none" stroke="black" d="M1114.83,-503.7C1114.83,-495.98 1114.83,-486.71 1114.83,-478.11"/>
<polygon fill="black" stroke="black" points="1118.33,-478.1 1114.83,-468.1 1111.33,-478.1 1118.33,-478.1"/>
</g>
<!-- [root] azurerm_virtual_machine_data_disk_attachment.disk_attach (expand)&#45;&gt;[root] azurerm_managed_disk.managed_disk (expand) -->
<g id="edge28" class="edge">
<title>[root] azurerm_virtual_machine_data_disk_attachment.disk_attach (expand)&#45;&gt;[root] azurerm_managed_disk.managed_disk (expand)</title>
<path fill="none" stroke="black" d="M959.57,-503.97C849.81,-491.92 704.55,-475.99 602.15,-464.75"/>
<polygon fill="black" stroke="black" points="602.39,-461.26 592.06,-463.64 601.62,-468.21 602.39,-461.26"/>
</g>
<!-- [root] azurerm_virtual_network.vnet (expand)&#45;&gt;[root] azurerm_resource_group.rg (expand) -->
<g id="edge29" class="edge">
<title>[root] azurerm_virtual_network.vnet (expand)&#45;&gt;[root] azurerm_resource_group.rg (expand)</title>
<path fill="none" stroke="black" d="M760.49,-215.88C744.13,-206.64 723.75,-195.13 706.17,-185.21"/>
<polygon fill="black" stroke="black" points="707.71,-182.06 697.28,-180.19 704.27,-188.15 707.71,-182.06"/>
</g>
<!-- [root] provider[&quot;registry.terraform.io/hashicorp/http&quot;] -->
<g id="node14" class="node">
<title>[root] provider[&quot;registry.terraform.io/hashicorp/http&quot;]</title>
<polygon fill="none" stroke="black" points="1841.83,-324 1589.29,-306 1841.83,-288 2094.36,-306 1841.83,-324"/>
<text text-anchor="middle" x="1841.83" y="-302.3" font-family="Times,serif" font-size="14.00">provider[&quot;registry.terraform.io/hashicorp/http&quot;]</text>
</g>
<!-- [root] data.http.ip_address (expand)&#45;&gt;[root] provider[&quot;registry.terraform.io/hashicorp/http&quot;] -->
<g id="edge30" class="edge">
<title>[root] data.http.ip_address (expand)&#45;&gt;[root] provider[&quot;registry.terraform.io/hashicorp/http&quot;]</title>
<path fill="none" stroke="black" d="M1812.47,-359.7C1817.02,-351.52 1822.55,-341.6 1827.57,-332.58"/>
<polygon fill="black" stroke="black" points="1830.76,-334.06 1832.57,-323.62 1824.64,-330.65 1830.76,-334.06"/>
</g>
<!-- [root] output.public_ip_address -->
<g id="node12" class="node">
<title>[root] output.public_ip_address</title>
<polygon fill="none" stroke="black" points="651.33,-540 504.33,-540 504.33,-504 657.33,-504 657.33,-534 651.33,-540"/>
<polyline fill="none" stroke="black" points="651.33,-540 651.33,-534 "/>
<polyline fill="none" stroke="black" points="657.33,-534 651.33,-534 "/>
<text text-anchor="middle" x="580.83" y="-518.3" font-family="Times,serif" font-size="14.00">output.public_ip_address</text>
</g>
<!-- [root] output.public_ip_address&#45;&gt;[root] azurerm_public_ip.public_ip (expand) -->
<g id="edge32" class="edge">
<title>[root] output.public_ip_address&#45;&gt;[root] azurerm_public_ip.public_ip (expand)</title>
<path fill="none" stroke="black" d="M504.1,-512.25C446.28,-504.05 373.52,-489.75 352.83,-468 319.5,-432.97 315.25,-401.64 339.83,-360 347.69,-346.69 360.22,-336.48 373.67,-328.76"/>
<polygon fill="black" stroke="black" points="375.4,-331.81 382.6,-324.04 372.13,-325.62 375.4,-331.81"/>
</g>
<!-- [root] var.account_replication_type -->
<g id="node16" class="node">
<title>[root] var.account_replication_type</title>
<polygon fill="none" stroke="black" points="942.33,-612 775.33,-612 775.33,-576 948.33,-576 948.33,-606 942.33,-612"/>
<polyline fill="none" stroke="black" points="942.33,-612 942.33,-606 "/>
<polyline fill="none" stroke="black" points="948.33,-606 942.33,-606 "/>
<text text-anchor="middle" x="861.83" y="-590.3" font-family="Times,serif" font-size="14.00">var.account_replication_type</text>
</g>
<!-- [root] var.labels -->
<g id="node18" class="node">
<title>[root] var.labels</title>
<polygon fill="none" stroke="black" points="964.83,-36 902.83,-36 902.83,0 970.83,0 970.83,-30 964.83,-36"/>
<polyline fill="none" stroke="black" points="964.83,-36 964.83,-30 "/>
<polyline fill="none" stroke="black" points="970.83,-30 964.83,-30 "/>
<text text-anchor="middle" x="936.83" y="-14.3" font-family="Times,serif" font-size="14.00">var.labels</text>
</g>
<!-- [root] local.required_tags (expand)&#45;&gt;[root] var.labels -->
<g id="edge31" class="edge">
<title>[root] local.required_tags (expand)&#45;&gt;[root] var.labels</title>
<path fill="none" stroke="black" d="M936.83,-71.7C936.83,-63.98 936.83,-54.71 936.83,-46.11"/>
<polygon fill="black" stroke="black" points="940.33,-46.1 936.83,-36.1 933.33,-46.1 940.33,-46.1"/>
</g>
<!-- [root] provider[&quot;registry.terraform.io/hashicorp/azurerm&quot;] (close) -->
<g id="node30" class="node">
<title>[root] provider[&quot;registry.terraform.io/hashicorp/azurerm&quot;] (close)</title>
<ellipse fill="none" stroke="black" cx="1209.83" cy="-594" rx="243.16" ry="18"/>
<text text-anchor="middle" x="1209.83" y="-590.3" font-family="Times,serif" font-size="14.00">[root] provider[&quot;registry.terraform.io/hashicorp/azurerm&quot;] (close)</text>
</g>
<!-- [root] provider[&quot;registry.terraform.io/hashicorp/azurerm&quot;] (close)&#45;&gt;[root] azurerm_subnet_network_security_group_association.sec_group (expand) -->
<g id="edge33" class="edge">
<title>[root] provider[&quot;registry.terraform.io/hashicorp/azurerm&quot;] (close)&#45;&gt;[root] azurerm_subnet_network_security_group_association.sec_group (expand)</title>
<path fill="none" stroke="black" d="M1282.42,-576.76C1328.55,-566.45 1388.48,-553.05 1436.96,-542.2"/>
<polygon fill="black" stroke="black" points="1437.81,-545.6 1446.81,-540 1436.29,-538.77 1437.81,-545.6"/>
</g>
<!-- [root] provider[&quot;registry.terraform.io/hashicorp/azurerm&quot;] (close)&#45;&gt;[root] azurerm_virtual_machine_data_disk_attachment.disk_attach (expand) -->
<g id="edge34" class="edge">
<title>[root] provider[&quot;registry.terraform.io/hashicorp/azurerm&quot;] (close)&#45;&gt;[root] azurerm_virtual_machine_data_disk_attachment.disk_attach (expand)</title>
<path fill="none" stroke="black" d="M1186.83,-576.05C1174.67,-567.09 1159.55,-555.96 1146.32,-546.2"/>
<polygon fill="black" stroke="black" points="1148.07,-543.15 1137.94,-540.03 1143.92,-548.78 1148.07,-543.15"/>
</g>
<!-- [root] provider[&quot;registry.terraform.io/hashicorp/http&quot;] (close) -->
<g id="node31" class="node">
<title>[root] provider[&quot;registry.terraform.io/hashicorp/http&quot;] (close)</title>
<ellipse fill="none" stroke="black" cx="1707.83" cy="-594" rx="227.46" ry="18"/>
<text text-anchor="middle" x="1707.83" y="-590.3" font-family="Times,serif" font-size="14.00">[root] provider[&quot;registry.terraform.io/hashicorp/http&quot;] (close)</text>
</g>
<!-- [root] provider[&quot;registry.terraform.io/hashicorp/http&quot;] (close)&#45;&gt;[root] data.http.ip_address (expand) -->
<g id="edge35" class="edge">
<title>[root] provider[&quot;registry.terraform.io/hashicorp/http&quot;] (close)&#45;&gt;[root] data.http.ip_address (expand)</title>
<path fill="none" stroke="black" d="M1720.91,-575.78C1737.93,-552.55 1767.41,-509.3 1783.83,-468 1791.74,-448.09 1796.6,-424.29 1799.43,-406.32"/>
<polygon fill="black" stroke="black" points="1802.92,-406.63 1800.89,-396.23 1795.99,-405.62 1802.92,-406.63"/>
</g>
<!-- [root] root -->
<g id="node32" class="node">
<title>[root] root</title>
<ellipse fill="none" stroke="black" cx="1035.83" cy="-666" rx="47.39" ry="18"/>
<text text-anchor="middle" x="1035.83" y="-662.3" font-family="Times,serif" font-size="14.00">[root] root</text>
</g>
<!-- [root] root&#45;&gt;[root] output.public_ip_address -->
<g id="edge36" class="edge">
<title>[root] root&#45;&gt;[root] output.public_ip_address</title>
<path fill="none" stroke="black" d="M990.98,-659.75C936.67,-652.59 842.89,-637.63 765.83,-612 712.98,-594.42 655.72,-565.14 619.13,-545"/>
<polygon fill="black" stroke="black" points="620.73,-541.88 610.28,-540.09 617.33,-548 620.73,-541.88"/>
</g>
<!-- [root] root&#45;&gt;[root] var.account_replication_type -->
<g id="edge39" class="edge">
<title>[root] root&#45;&gt;[root] var.account_replication_type</title>
<path fill="none" stroke="black" d="M1004.32,-652.32C979.04,-642.16 943.05,-627.67 913.56,-615.81"/>
<polygon fill="black" stroke="black" points="914.82,-612.55 904.23,-612.06 912.21,-619.04 914.82,-612.55"/>
</g>
<!-- [root] root&#45;&gt;[root] provider[&quot;registry.terraform.io/hashicorp/azurerm&quot;] (close) -->
<g id="edge37" class="edge">
<title>[root] root&#45;&gt;[root] provider[&quot;registry.terraform.io/hashicorp/azurerm&quot;] (close)</title>
<path fill="none" stroke="black" d="M1067.34,-652.32C1092.79,-642.08 1129.11,-627.47 1158.71,-615.56"/>
<polygon fill="black" stroke="black" points="1160.1,-618.78 1168.07,-611.8 1157.48,-612.29 1160.1,-618.78"/>
</g>
<!-- [root] root&#45;&gt;[root] provider[&quot;registry.terraform.io/hashicorp/http&quot;] (close) -->
<g id="edge38" class="edge">
<title>[root] root&#45;&gt;[root] provider[&quot;registry.terraform.io/hashicorp/http&quot;] (close)</title>
<path fill="none" stroke="black" d="M1080.96,-660.3C1178.72,-650.11 1413.53,-625.66 1566.38,-609.73"/>
<polygon fill="black" stroke="black" points="1566.75,-613.22 1576.33,-608.7 1566.02,-606.25 1566.75,-613.22"/>
</g>
</g>
</svg>
