<?xml version="1.0" encoding="UTF-8" standalone="no"?>
<!DOCTYPE svg PUBLIC "-//W3C//DTD SVG 1.1//EN"
 "http://www.w3.org/Graphics/SVG/1.1/DTD/svg11.dtd">
<!-- Generated by graphviz version 2.50.0 (20211204.2007)
 -->
<!-- Pages: 1 -->
<svg width="1525pt" height="548pt"
 viewBox="0.00 0.00 1525.29 548.00" xmlns="http://www.w3.org/2000/svg" xmlns:xlink="http://www.w3.org/1999/xlink">
<g id="graph0" class="graph" transform="scale(1 1) rotate(0) translate(4 544)">
<polygon fill="white" stroke="transparent" points="-4,4 -4,-544 1521.29,-544 1521.29,4 -4,4"/>
<!-- [root] azurerm_linux_virtual_machine.vm (expand) -->
<g id="node1" class="node">
<title>[root] azurerm_linux_virtual_machine.vm (expand)</title>
<polygon fill="none" stroke="black" points="563.02,-396 350.02,-396 350.02,-360 563.02,-360 563.02,-396"/>
<text text-anchor="middle" x="456.52" y="-374.3" font-family="Times,serif" font-size="14.00">azurerm_linux_virtual_machine.vm</text>
</g>
<!-- [root] azurerm_network_interface.network_if (expand) -->
<g id="node2" class="node">
<title>[root] azurerm_network_interface.network_if (expand)</title>
<polygon fill="none" stroke="black" points="958.52,-324 728.52,-324 728.52,-288 958.52,-288 958.52,-324"/>
<text text-anchor="middle" x="843.52" y="-302.3" font-family="Times,serif" font-size="14.00">azurerm_network_interface.network_if</text>
</g>
<!-- [root] azurerm_linux_virtual_machine.vm (expand)&#45;&gt;[root] azurerm_network_interface.network_if (expand) -->
<g id="edge1" class="edge">
<title>[root] azurerm_linux_virtual_machine.vm (expand)&#45;&gt;[root] azurerm_network_interface.network_if (expand)</title>
<path fill="none" stroke="black" d="M550.7,-359.97C607.7,-349.66 680.47,-336.49 739.21,-325.87"/>
<polygon fill="black" stroke="black" points="740.04,-329.27 749.26,-324.05 738.8,-322.39 740.04,-329.27"/>
</g>
<!-- [root] var.disable_password_authentication -->
<g id="node13" class="node">
<title>[root] var.disable_password_authentication</title>
<polygon fill="none" stroke="black" points="226.52,-324 16.52,-324 16.52,-288 232.52,-288 232.52,-318 226.52,-324"/>
<polyline fill="none" stroke="black" points="226.52,-324 226.52,-318 "/>
<polyline fill="none" stroke="black" points="232.52,-318 226.52,-318 "/>
<text text-anchor="middle" x="124.52" y="-302.3" font-family="Times,serif" font-size="14.00">var.disable_password_authentication</text>
</g>
<!-- [root] azurerm_linux_virtual_machine.vm (expand)&#45;&gt;[root] var.disable_password_authentication -->
<g id="edge2" class="edge">
<title>[root] azurerm_linux_virtual_machine.vm (expand)&#45;&gt;[root] var.disable_password_authentication</title>
<path fill="none" stroke="black" d="M375.73,-359.97C327.24,-349.74 265.43,-336.71 215.26,-326.13"/>
<polygon fill="black" stroke="black" points="215.9,-322.69 205.39,-324.05 214.45,-329.54 215.9,-322.69"/>
</g>
<!-- [root] var.diskSize -->
<g id="node14" class="node">
<title>[root] var.diskSize</title>
<polygon fill="none" stroke="black" points="328.02,-324 251.02,-324 251.02,-288 334.02,-288 334.02,-318 328.02,-324"/>
<polyline fill="none" stroke="black" points="328.02,-324 328.02,-318 "/>
<polyline fill="none" stroke="black" points="334.02,-318 328.02,-318 "/>
<text text-anchor="middle" x="292.52" y="-302.3" font-family="Times,serif" font-size="14.00">var.diskSize</text>
</g>
<!-- [root] azurerm_linux_virtual_machine.vm (expand)&#45;&gt;[root] var.diskSize -->
<g id="edge3" class="edge">
<title>[root] azurerm_linux_virtual_machine.vm (expand)&#45;&gt;[root] var.diskSize</title>
<path fill="none" stroke="black" d="M416.41,-359.88C393.89,-350.26 365.61,-338.19 341.75,-328.01"/>
<polygon fill="black" stroke="black" points="343.08,-324.77 332.51,-324.07 340.34,-331.21 343.08,-324.77"/>
</g>
<!-- [root] var.storage_account_type -->
<g id="node18" class="node">
<title>[root] var.storage_account_type</title>
<polygon fill="none" stroke="black" points="501.02,-324 352.02,-324 352.02,-288 507.02,-288 507.02,-318 501.02,-324"/>
<polyline fill="none" stroke="black" points="501.02,-324 501.02,-318 "/>
<polyline fill="none" stroke="black" points="507.02,-318 501.02,-318 "/>
<text text-anchor="middle" x="429.52" y="-302.3" font-family="Times,serif" font-size="14.00">var.storage_account_type</text>
</g>
<!-- [root] azurerm_linux_virtual_machine.vm (expand)&#45;&gt;[root] var.storage_account_type -->
<g id="edge4" class="edge">
<title>[root] azurerm_linux_virtual_machine.vm (expand)&#45;&gt;[root] var.storage_account_type</title>
<path fill="none" stroke="black" d="M449.85,-359.7C446.81,-351.81 443.14,-342.3 439.76,-333.55"/>
<polygon fill="black" stroke="black" points="442.99,-332.17 436.12,-324.1 436.45,-334.69 442.99,-332.17"/>
</g>
<!-- [root] var.username -->
<g id="node19" class="node">
<title>[root] var.username</title>
<polygon fill="none" stroke="black" points="608.02,-324 525.02,-324 525.02,-288 614.02,-288 614.02,-318 608.02,-324"/>
<polyline fill="none" stroke="black" points="608.02,-324 608.02,-318 "/>
<polyline fill="none" stroke="black" points="614.02,-318 608.02,-318 "/>
<text text-anchor="middle" x="569.52" y="-302.3" font-family="Times,serif" font-size="14.00">var.username</text>
</g>
<!-- [root] azurerm_linux_virtual_machine.vm (expand)&#45;&gt;[root] var.username -->
<g id="edge5" class="edge">
<title>[root] azurerm_linux_virtual_machine.vm (expand)&#45;&gt;[root] var.username</title>
<path fill="none" stroke="black" d="M484.17,-359.88C498.94,-350.72 517.32,-339.34 533.23,-329.48"/>
<polygon fill="black" stroke="black" points="535.12,-332.43 541.77,-324.19 531.43,-326.48 535.12,-332.43"/>
</g>
<!-- [root] var.vmSize -->
<g id="node20" class="node">
<title>[root] var.vmSize</title>
<polygon fill="none" stroke="black" points="704.52,-324 632.52,-324 632.52,-288 710.52,-288 710.52,-318 704.52,-324"/>
<polyline fill="none" stroke="black" points="704.52,-324 704.52,-318 "/>
<polyline fill="none" stroke="black" points="710.52,-318 704.52,-318 "/>
<text text-anchor="middle" x="671.52" y="-302.3" font-family="Times,serif" font-size="14.00">var.vmSize</text>
</g>
<!-- [root] azurerm_linux_virtual_machine.vm (expand)&#45;&gt;[root] var.vmSize -->
<g id="edge6" class="edge">
<title>[root] azurerm_linux_virtual_machine.vm (expand)&#45;&gt;[root] var.vmSize</title>
<path fill="none" stroke="black" d="M511.21,-359.92C543.64,-349.69 585.5,-336.33 622.52,-324 622.63,-323.97 622.73,-323.93 622.83,-323.9"/>
<polygon fill="black" stroke="black" points="624.15,-327.15 632.5,-320.64 621.91,-320.51 624.15,-327.15"/>
</g>
<!-- [root] azurerm_public_ip.public_ip (expand) -->
<g id="node5" class="node">
<title>[root] azurerm_public_ip.public_ip (expand)</title>
<polygon fill="none" stroke="black" points="749.52,-252 575.52,-252 575.52,-216 749.52,-216 749.52,-252"/>
<text text-anchor="middle" x="662.52" y="-230.3" font-family="Times,serif" font-size="14.00">azurerm_public_ip.public_ip</text>
</g>
<!-- [root] azurerm_network_interface.network_if (expand)&#45;&gt;[root] azurerm_public_ip.public_ip (expand) -->
<g id="edge7" class="edge">
<title>[root] azurerm_network_interface.network_if (expand)&#45;&gt;[root] azurerm_public_ip.public_ip (expand)</title>
<path fill="none" stroke="black" d="M799.25,-287.88C774.17,-278.18 742.63,-265.98 716.16,-255.74"/>
<polygon fill="black" stroke="black" points="717.25,-252.41 706.66,-252.07 714.72,-258.94 717.25,-252.41"/>
</g>
<!-- [root] azurerm_subnet.subnet (expand) -->
<g id="node7" class="node">
<title>[root] azurerm_subnet.subnet (expand)</title>
<polygon fill="none" stroke="black" points="916.02,-252 773.02,-252 773.02,-216 916.02,-216 916.02,-252"/>
<text text-anchor="middle" x="844.52" y="-230.3" font-family="Times,serif" font-size="14.00">azurerm_subnet.subnet</text>
</g>
<!-- [root] azurerm_network_interface.network_if (expand)&#45;&gt;[root] azurerm_subnet.subnet (expand) -->
<g id="edge8" class="edge">
<title>[root] azurerm_network_interface.network_if (expand)&#45;&gt;[root] azurerm_subnet.subnet (expand)</title>
<path fill="none" stroke="black" d="M843.77,-287.7C843.88,-279.98 844.01,-270.71 844.14,-262.11"/>
<polygon fill="black" stroke="black" points="847.64,-262.15 844.28,-252.1 840.64,-262.05 847.64,-262.15"/>
</g>
<!-- [root] azurerm_network_interface_security_group_association.sec_group (expand) -->
<g id="node3" class="node">
<title>[root] azurerm_network_interface_security_group_association.sec_group (expand)</title>
<polygon fill="none" stroke="black" points="989.52,-396 609.52,-396 609.52,-360 989.52,-360 989.52,-396"/>
<text text-anchor="middle" x="799.52" y="-374.3" font-family="Times,serif" font-size="14.00">azurerm_network_interface_security_group_association.sec_group</text>
</g>
<!-- [root] azurerm_network_interface_security_group_association.sec_group (expand)&#45;&gt;[root] azurerm_network_interface.network_if (expand) -->
<g id="edge9" class="edge">
<title>[root] azurerm_network_interface_security_group_association.sec_group (expand)&#45;&gt;[root] azurerm_network_interface.network_if (expand)</title>
<path fill="none" stroke="black" d="M810.4,-359.7C815.52,-351.56 821.72,-341.69 827.37,-332.7"/>
<polygon fill="black" stroke="black" points="830.41,-334.43 832.77,-324.1 824.49,-330.71 830.41,-334.43"/>
</g>
<!-- [root] azurerm_network_security_group.nsg (expand) -->
<g id="node4" class="node">
<title>[root] azurerm_network_security_group.nsg (expand)</title>
<polygon fill="none" stroke="black" points="1200.02,-324 977.02,-324 977.02,-288 1200.02,-288 1200.02,-324"/>
<text text-anchor="middle" x="1088.52" y="-302.3" font-family="Times,serif" font-size="14.00">azurerm_network_security_group.nsg</text>
</g>
<!-- [root] azurerm_network_interface_security_group_association.sec_group (expand)&#45;&gt;[root] azurerm_network_security_group.nsg (expand) -->
<g id="edge10" class="edge">
<title>[root] azurerm_network_interface_security_group_association.sec_group (expand)&#45;&gt;[root] azurerm_network_security_group.nsg (expand)</title>
<path fill="none" stroke="black" d="M869.85,-359.97C911.63,-349.85 964.75,-336.98 1008.17,-326.46"/>
<polygon fill="black" stroke="black" points="1009.24,-329.81 1018.13,-324.05 1007.59,-323 1009.24,-329.81"/>
</g>
<!-- [root] azurerm_resource_group.rg (expand) -->
<g id="node6" class="node">
<title>[root] azurerm_resource_group.rg (expand)</title>
<polygon fill="none" stroke="black" points="931.02,-108 764.02,-108 764.02,-72 931.02,-72 931.02,-108"/>
<text text-anchor="middle" x="847.52" y="-86.3" font-family="Times,serif" font-size="14.00">azurerm_resource_group.rg</text>
</g>
<!-- [root] azurerm_network_security_group.nsg (expand)&#45;&gt;[root] azurerm_resource_group.rg (expand) -->
<g id="edge11" class="edge">
<title>[root] azurerm_network_security_group.nsg (expand)&#45;&gt;[root] azurerm_resource_group.rg (expand)</title>
<path fill="none" stroke="black" d="M1076.81,-287.9C1054.54,-256.34 1003.32,-188.15 947.52,-144 932.18,-131.86 913.65,-121.15 896.73,-112.59"/>
<polygon fill="black" stroke="black" points="898.04,-109.33 887.52,-108.06 894.95,-115.61 898.04,-109.33"/>
</g>
<!-- [root] data.http.ip_address (expand) -->
<g id="node9" class="node">
<title>[root] data.http.ip_address (expand)</title>
<polygon fill="none" stroke="black" points="1327.02,-252 1202.02,-252 1202.02,-216 1327.02,-216 1327.02,-252"/>
<text text-anchor="middle" x="1264.52" y="-230.3" font-family="Times,serif" font-size="14.00">data.http.ip_address</text>
</g>
<!-- [root] azurerm_network_security_group.nsg (expand)&#45;&gt;[root] data.http.ip_address (expand) -->
<g id="edge12" class="edge">
<title>[root] azurerm_network_security_group.nsg (expand)&#45;&gt;[root] data.http.ip_address (expand)</title>
<path fill="none" stroke="black" d="M1131.58,-287.88C1155.85,-278.22 1186.36,-266.09 1212.03,-255.88"/>
<polygon fill="black" stroke="black" points="1213.61,-259.02 1221.61,-252.07 1211.02,-252.51 1213.61,-259.02"/>
</g>
<!-- [root] azurerm_public_ip.public_ip (expand)&#45;&gt;[root] azurerm_resource_group.rg (expand) -->
<g id="edge13" class="edge">
<title>[root] azurerm_public_ip.public_ip (expand)&#45;&gt;[root] azurerm_resource_group.rg (expand)</title>
<path fill="none" stroke="black" d="M677.85,-215.68C697.98,-193.16 732.53,-155.35 747.52,-144 763.26,-132.09 782.03,-121.37 799.04,-112.74"/>
<polygon fill="black" stroke="black" points="800.87,-115.74 808.28,-108.17 797.76,-109.47 800.87,-115.74"/>
</g>
<!-- [root] var.numVMs -->
<g id="node15" class="node">
<title>[root] var.numVMs</title>
<polygon fill="none" stroke="black" points="694.02,-180 611.02,-180 611.02,-144 700.02,-144 700.02,-174 694.02,-180"/>
<polyline fill="none" stroke="black" points="694.02,-180 694.02,-174 "/>
<polyline fill="none" stroke="black" points="700.02,-174 694.02,-174 "/>
<text text-anchor="middle" x="655.52" y="-158.3" font-family="Times,serif" font-size="14.00">var.numVMs</text>
</g>
<!-- [root] azurerm_public_ip.public_ip (expand)&#45;&gt;[root] var.numVMs -->
<g id="edge14" class="edge">
<title>[root] azurerm_public_ip.public_ip (expand)&#45;&gt;[root] var.numVMs</title>
<path fill="none" stroke="black" d="M660.79,-215.7C660.02,-207.98 659.1,-198.71 658.24,-190.11"/>
<polygon fill="black" stroke="black" points="661.71,-189.71 657.23,-180.1 654.75,-190.4 661.71,-189.71"/>
</g>
<!-- [root] provider[&quot;registry.terraform.io/hashicorp/azurerm&quot;] -->
<g id="node11" class="node">
<title>[root] provider[&quot;registry.terraform.io/hashicorp/azurerm&quot;]</title>
<polygon fill="none" stroke="black" points="519.52,-36 244.87,-18 519.52,0 794.18,-18 519.52,-36"/>
<text text-anchor="middle" x="519.52" y="-14.3" font-family="Times,serif" font-size="14.00">provider[&quot;registry.terraform.io/hashicorp/azurerm&quot;]</text>
</g>
<!-- [root] azurerm_resource_group.rg (expand)&#45;&gt;[root] provider[&quot;registry.terraform.io/hashicorp/azurerm&quot;] -->
<g id="edge15" class="edge">
<title>[root] azurerm_resource_group.rg (expand)&#45;&gt;[root] provider[&quot;registry.terraform.io/hashicorp/azurerm&quot;]</title>
<path fill="none" stroke="black" d="M767.71,-71.97C713.55,-60.41 642.59,-45.26 590.42,-34.13"/>
<polygon fill="black" stroke="black" points="591.09,-30.69 580.58,-32.03 589.63,-37.54 591.09,-30.69"/>
</g>
<!-- [root] var.region -->
<g id="node16" class="node">
<title>[root] var.region</title>
<polygon fill="none" stroke="black" points="877.02,-36 812.02,-36 812.02,0 883.02,0 883.02,-30 877.02,-36"/>
<polyline fill="none" stroke="black" points="877.02,-36 877.02,-30 "/>
<polyline fill="none" stroke="black" points="883.02,-30 877.02,-30 "/>
<text text-anchor="middle" x="847.52" y="-14.3" font-family="Times,serif" font-size="14.00">var.region</text>
</g>
<!-- [root] azurerm_resource_group.rg (expand)&#45;&gt;[root] var.region -->
<g id="edge16" class="edge">
<title>[root] azurerm_resource_group.rg (expand)&#45;&gt;[root] var.region</title>
<path fill="none" stroke="black" d="M847.52,-71.7C847.52,-63.98 847.52,-54.71 847.52,-46.11"/>
<polygon fill="black" stroke="black" points="851.02,-46.1 847.52,-36.1 844.02,-46.1 851.02,-46.1"/>
</g>
<!-- [root] var.resource_group -->
<g id="node17" class="node">
<title>[root] var.resource_group</title>
<polygon fill="none" stroke="black" points="1016.02,-36 901.02,-36 901.02,0 1022.02,0 1022.02,-30 1016.02,-36"/>
<polyline fill="none" stroke="black" points="1016.02,-36 1016.02,-30 "/>
<polyline fill="none" stroke="black" points="1022.02,-30 1016.02,-30 "/>
<text text-anchor="middle" x="961.52" y="-14.3" font-family="Times,serif" font-size="14.00">var.resource_group</text>
</g>
<!-- [root] azurerm_resource_group.rg (expand)&#45;&gt;[root] var.resource_group -->
<g id="edge17" class="edge">
<title>[root] azurerm_resource_group.rg (expand)&#45;&gt;[root] var.resource_group</title>
<path fill="none" stroke="black" d="M875.41,-71.88C890.32,-62.72 908.85,-51.34 924.91,-41.48"/>
<polygon fill="black" stroke="black" points="926.84,-44.41 933.53,-36.19 923.18,-38.44 926.84,-44.41"/>
</g>
<!-- [root] azurerm_virtual_network.vnet (expand) -->
<g id="node8" class="node">
<title>[root] azurerm_virtual_network.vnet (expand)</title>
<polygon fill="none" stroke="black" points="938.52,-180 756.52,-180 756.52,-144 938.52,-144 938.52,-180"/>
<text text-anchor="middle" x="847.52" y="-158.3" font-family="Times,serif" font-size="14.00">azurerm_virtual_network.vnet</text>
</g>
<!-- [root] azurerm_subnet.subnet (expand)&#45;&gt;[root] azurerm_virtual_network.vnet (expand) -->
<g id="edge18" class="edge">
<title>[root] azurerm_subnet.subnet (expand)&#45;&gt;[root] azurerm_virtual_network.vnet (expand)</title>
<path fill="none" stroke="black" d="M845.27,-215.7C845.6,-207.98 845.99,-198.71 846.36,-190.11"/>
<polygon fill="black" stroke="black" points="849.86,-190.25 846.79,-180.1 842.87,-189.95 849.86,-190.25"/>
</g>
<!-- [root] azurerm_virtual_network.vnet (expand)&#45;&gt;[root] azurerm_resource_group.rg (expand) -->
<g id="edge19" class="edge">
<title>[root] azurerm_virtual_network.vnet (expand)&#45;&gt;[root] azurerm_resource_group.rg (expand)</title>
<path fill="none" stroke="black" d="M847.52,-143.7C847.52,-135.98 847.52,-126.71 847.52,-118.11"/>
<polygon fill="black" stroke="black" points="851.02,-118.1 847.52,-108.1 844.02,-118.1 851.02,-118.1"/>
</g>
<!-- [root] provider[&quot;registry.terraform.io/hashicorp/http&quot;] -->
<g id="node12" class="node">
<title>[root] provider[&quot;registry.terraform.io/hashicorp/http&quot;]</title>
<polygon fill="none" stroke="black" points="1264.52,-180 1011.99,-162 1264.52,-144 1517.06,-162 1264.52,-180"/>
<text text-anchor="middle" x="1264.52" y="-158.3" font-family="Times,serif" font-size="14.00">provider[&quot;registry.terraform.io/hashicorp/http&quot;]</text>
</g>
<!-- [root] data.http.ip_address (expand)&#45;&gt;[root] provider[&quot;registry.terraform.io/hashicorp/http&quot;] -->
<g id="edge20" class="edge">
<title>[root] data.http.ip_address (expand)&#45;&gt;[root] provider[&quot;registry.terraform.io/hashicorp/http&quot;]</title>
<path fill="none" stroke="black" d="M1264.52,-215.7C1264.52,-207.98 1264.52,-198.71 1264.52,-190.11"/>
<polygon fill="black" stroke="black" points="1268.02,-190.1 1264.52,-180.1 1261.02,-190.1 1268.02,-190.1"/>
</g>
<!-- [root] output.public_ip_address -->
<g id="node10" class="node">
<title>[root] output.public_ip_address</title>
<polygon fill="none" stroke="black" points="206.02,-396 59.02,-396 59.02,-360 212.02,-360 212.02,-390 206.02,-396"/>
<polyline fill="none" stroke="black" points="206.02,-396 206.02,-390 "/>
<polyline fill="none" stroke="black" points="212.02,-390 206.02,-390 "/>
<text text-anchor="middle" x="135.52" y="-374.3" font-family="Times,serif" font-size="14.00">output.public_ip_address</text>
</g>
<!-- [root] output.public_ip_address&#45;&gt;[root] azurerm_public_ip.public_ip (expand) -->
<g id="edge24" class="edge">
<title>[root] output.public_ip_address&#45;&gt;[root] azurerm_public_ip.public_ip (expand)</title>
<path fill="none" stroke="black" d="M58.7,-361.62C38.73,-353.76 19.48,-341.9 7.52,-324 -1.37,-310.7 -3.32,-299.76 7.52,-288 44.52,-247.89 392.03,-238.13 565.28,-235.76"/>
<polygon fill="black" stroke="black" points="565.47,-239.26 575.43,-235.63 565.38,-232.26 565.47,-239.26"/>
</g>
<!-- [root] meta.count&#45;boundary (EachMode fixup) -->
<g id="node21" class="node">
<title>[root] meta.count&#45;boundary (EachMode fixup)</title>
<ellipse fill="none" stroke="black" cx="360.52" cy="-450" rx="176.57" ry="18"/>
<text text-anchor="middle" x="360.52" y="-446.3" font-family="Times,serif" font-size="14.00">[root] meta.count&#45;boundary (EachMode fixup)</text>
</g>
<!-- [root] meta.count&#45;boundary (EachMode fixup)&#45;&gt;[root] azurerm_linux_virtual_machine.vm (expand) -->
<g id="edge21" class="edge">
<title>[root] meta.count&#45;boundary (EachMode fixup)&#45;&gt;[root] azurerm_linux_virtual_machine.vm (expand)</title>
<path fill="none" stroke="black" d="M383.76,-432.05C396.17,-423.01 411.62,-411.74 425.08,-401.93"/>
<polygon fill="black" stroke="black" points="427.15,-404.75 433.17,-396.03 423.02,-399.1 427.15,-404.75"/>
</g>
<!-- [root] meta.count&#45;boundary (EachMode fixup)&#45;&gt;[root] azurerm_network_interface_security_group_association.sec_group (expand) -->
<g id="edge22" class="edge">
<title>[root] meta.count&#45;boundary (EachMode fixup)&#45;&gt;[root] azurerm_network_interface_security_group_association.sec_group (expand)</title>
<path fill="none" stroke="black" d="M451.22,-434.54C518.24,-423.85 610.06,-409.21 682.59,-397.65"/>
<polygon fill="black" stroke="black" points="683.37,-401.07 692.7,-396.03 682.27,-394.15 683.37,-401.07"/>
</g>
<!-- [root] meta.count&#45;boundary (EachMode fixup)&#45;&gt;[root] output.public_ip_address -->
<g id="edge23" class="edge">
<title>[root] meta.count&#45;boundary (EachMode fixup)&#45;&gt;[root] output.public_ip_address</title>
<path fill="none" stroke="black" d="M308.34,-432.76C276.08,-422.73 234.43,-409.77 200.11,-399.09"/>
<polygon fill="black" stroke="black" points="200.76,-395.63 190.17,-396 198.68,-402.31 200.76,-395.63"/>
</g>
<!-- [root] provider[&quot;registry.terraform.io/hashicorp/azurerm&quot;] (close) -->
<g id="node22" class="node">
<title>[root] provider[&quot;registry.terraform.io/hashicorp/azurerm&quot;] (close)</title>
<ellipse fill="none" stroke="black" cx="798.52" cy="-450" rx="243.16" ry="18"/>
<text text-anchor="middle" x="798.52" y="-446.3" font-family="Times,serif" font-size="14.00">[root] provider[&quot;registry.terraform.io/hashicorp/azurerm&quot;] (close)</text>
</g>
<!-- [root] provider[&quot;registry.terraform.io/hashicorp/azurerm&quot;] (close)&#45;&gt;[root] azurerm_linux_virtual_machine.vm (expand) -->
<g id="edge25" class="edge">
<title>[root] provider[&quot;registry.terraform.io/hashicorp/azurerm&quot;] (close)&#45;&gt;[root] azurerm_linux_virtual_machine.vm (expand)</title>
<path fill="none" stroke="black" d="M720.06,-432.94C669.29,-422.55 602.93,-408.97 549.51,-398.03"/>
<polygon fill="black" stroke="black" points="550.19,-394.6 539.69,-396.02 548.79,-401.46 550.19,-394.6"/>
</g>
<!-- [root] provider[&quot;registry.terraform.io/hashicorp/azurerm&quot;] (close)&#45;&gt;[root] azurerm_network_interface_security_group_association.sec_group (expand) -->
<g id="edge26" class="edge">
<title>[root] provider[&quot;registry.terraform.io/hashicorp/azurerm&quot;] (close)&#45;&gt;[root] azurerm_network_interface_security_group_association.sec_group (expand)</title>
<path fill="none" stroke="black" d="M798.77,-431.7C798.88,-423.98 799.01,-414.71 799.14,-406.11"/>
<polygon fill="black" stroke="black" points="802.64,-406.15 799.28,-396.1 795.64,-406.05 802.64,-406.15"/>
</g>
<!-- [root] provider[&quot;registry.terraform.io/hashicorp/http&quot;] (close) -->
<g id="node23" class="node">
<title>[root] provider[&quot;registry.terraform.io/hashicorp/http&quot;] (close)</title>
<ellipse fill="none" stroke="black" cx="1287.52" cy="-450" rx="227.46" ry="18"/>
<text text-anchor="middle" x="1287.52" y="-446.3" font-family="Times,serif" font-size="14.00">[root] provider[&quot;registry.terraform.io/hashicorp/http&quot;] (close)</text>
</g>
<!-- [root] provider[&quot;registry.terraform.io/hashicorp/http&quot;] (close)&#45;&gt;[root] data.http.ip_address (expand) -->
<g id="edge27" class="edge">
<title>[root] provider[&quot;registry.terraform.io/hashicorp/http&quot;] (close)&#45;&gt;[root] data.http.ip_address (expand)</title>
<path fill="none" stroke="black" d="M1285.68,-431.85C1281.7,-394.83 1272.28,-307.18 1267.47,-262.39"/>
<polygon fill="black" stroke="black" points="1270.92,-261.8 1266.38,-252.23 1263.96,-262.55 1270.92,-261.8"/>
</g>
<!-- [root] root -->
<g id="node24" class="node">
<title>[root] root</title>
<ellipse fill="none" stroke="black" cx="798.52" cy="-522" rx="47.39" ry="18"/>
<text text-anchor="middle" x="798.52" y="-518.3" font-family="Times,serif" font-size="14.00">[root] root</text>
</g>
<!-- [root] root&#45;&gt;[root] meta.count&#45;boundary (EachMode fixup) -->
<g id="edge28" class="edge">
<title>[root] root&#45;&gt;[root] meta.count&#45;boundary (EachMode fixup)</title>
<path fill="none" stroke="black" d="M755.73,-514.16C688.02,-503.34 554.35,-481.98 461.32,-467.11"/>
<polygon fill="black" stroke="black" points="461.74,-463.63 451.32,-465.51 460.64,-470.54 461.74,-463.63"/>
</g>
<!-- [root] root&#45;&gt;[root] provider[&quot;registry.terraform.io/hashicorp/azurerm&quot;] (close) -->
<g id="edge29" class="edge">
<title>[root] root&#45;&gt;[root] provider[&quot;registry.terraform.io/hashicorp/azurerm&quot;] (close)</title>
<path fill="none" stroke="black" d="M798.52,-503.7C798.52,-495.98 798.52,-486.71 798.52,-478.11"/>
<polygon fill="black" stroke="black" points="802.02,-478.1 798.52,-468.1 795.02,-478.1 802.02,-478.1"/>
</g>
<!-- [root] root&#45;&gt;[root] provider[&quot;registry.terraform.io/hashicorp/http&quot;] (close) -->
<g id="edge30" class="edge">
<title>[root] root&#45;&gt;[root] provider[&quot;registry.terraform.io/hashicorp/http&quot;] (close)</title>
<path fill="none" stroke="black" d="M842.35,-514.73C916.04,-504.18 1067.06,-482.56 1172.68,-467.44"/>
<polygon fill="black" stroke="black" points="1173.35,-470.88 1182.75,-466 1172.35,-463.95 1173.35,-470.88"/>
</g>
</g>
</svg>
